<?xml version="1.0" standalone="no"?>
<!DOCTYPE svg PUBLIC "-//W3C//DTD SVG 20010904//EN"
 "http://www.w3.org/TR/2001/REC-SVG-20010904/DTD/svg10.dtd">
<svg version="1.0" xmlns="http://www.w3.org/2000/svg"
 width="1800.000000pt" height="1800.000000pt" viewBox="0 0 1800.000000 1800.000000"
 preserveAspectRatio="xMidYMid meet">
<metadata>
Created by potrace 1.16, written by Peter Selinger 2001-2019
</metadata>
<g transform="translate(0.000000,1800.000000) scale(0.100000,-0.100000)"
fill="#000000" stroke="none">
<path d="M8087 13474 l-4509 -4504 4479 -4474 4478 -4475 915 915 915 914
-3560 3560 -3560 3560 3590 3590 3590 3590 -915 914 -915 915 -4508 -4505z
m4088 2256 l760 -760 -2993 -2993 c-1645 -1645 -2992 -2997 -2992 -3002 0 -6
1334 -1344 2965 -2975 l2965 -2965 -762 -762 -762 -762 -3733 3726 c-2053
2049 -3733 3731 -3733 3738 0 13 7507 7515 7519 7515 3 0 348 -342 766 -760z"/>
</g>
</svg>
