<?xml version="1.0" standalone="no"?>
<!DOCTYPE svg PUBLIC "-//W3C//DTD SVG 20010904//EN"
 "http://www.w3.org/TR/2001/REC-SVG-20010904/DTD/svg10.dtd">
<svg version="1.0" xmlns="http://www.w3.org/2000/svg"
 width="1800.000000pt" height="1800.000000pt" viewBox="0 0 1800.000000 1800.000000"
 preserveAspectRatio="xMidYMid meet">
<metadata>
Created by potrace 1.16, written by Peter Selinger 2001-2019
</metadata>
<g transform="translate(0.000000,1800.000000) scale(0.100000,-0.100000)"
fill="#000000" stroke="none">
<path d="M4489 17064 l-914 -914 3590 -3590 3590 -3590 -3560 -3560 -3560
-3560 914 -914 915 -915 4475 4472 c2462 2459 4476 4474 4476 4477 0 3 -2028
2031 -4506 4507 l-4505 4502 -915 -915z m5874 -4332 l3757 -3757 -3735 -3735
-3735 -3735 -765 765 -765 765 2970 2970 2970 2970 -2995 2995 -2995 2995 762
762 c420 420 765 763 768 763 3 0 1696 -1691 3763 -3758z"/>
</g>
</svg>
