<?xml version="1.0" standalone="no"?>
<!DOCTYPE svg PUBLIC "-//W3C//DTD SVG 20010904//EN"
 "http://www.w3.org/TR/2001/REC-SVG-20010904/DTD/svg10.dtd">
<svg version="1.0" xmlns="http://www.w3.org/2000/svg"
 width="1920.000000pt" height="1080.000000pt" viewBox="0 0 1920.000000 1080.000000"
 preserveAspectRatio="xMidYMid meet">

<g transform="translate(0.000000,1080.000000) scale(0.100000,-0.100000)"
fill="#000000" stroke="none">
<path d="M5245 9731 c-49 -5 -108 -15 -130 -24 -22 -9 -52 -16 -66 -17 -15 0
-32 -7 -39 -15 -7 -8 -20 -15 -29 -15 -8 0 -39 -11 -68 -25 -29 -14 -78 -37
-108 -51 -31 -15 -73 -39 -93 -53 -20 -15 -59 -40 -87 -56 -27 -16 -54 -34
-60 -40 -19 -21 -113 -95 -121 -95 -19 0 -214 -236 -258 -312 -15 -25 -33 -52
-41 -58 -8 -7 -15 -23 -15 -35 0 -12 -6 -28 -14 -34 -8 -7 -18 -26 -22 -43 -3
-17 -15 -45 -25 -62 -10 -17 -19 -41 -19 -52 0 -12 -9 -33 -20 -47 -13 -17
-20 -40 -20 -72 0 -25 -7 -60 -16 -77 -9 -17 -20 -70 -24 -117 -5 -47 -14
-134 -21 -193 -10 -84 -10 -130 0 -220 20 -180 24 -245 18 -270 -4 -13 -25
-43 -48 -68 -23 -25 -81 -88 -129 -140 -48 -52 -110 -122 -138 -155 -117 -139
-131 -151 -197 -159 -32 -4 -66 -13 -75 -20 -8 -8 -38 -17 -67 -21 -28 -4 -54
-12 -56 -19 -3 -7 -23 -16 -45 -19 -22 -4 -45 -13 -51 -21 -6 -8 -28 -17 -48
-21 -20 -3 -45 -12 -57 -20 -12 -7 -40 -16 -63 -20 -23 -4 -47 -13 -54 -21 -6
-8 -19 -14 -29 -14 -9 0 -29 -9 -43 -20 -14 -11 -31 -20 -39 -20 -7 0 -26 -9
-43 -20 -16 -11 -38 -20 -48 -20 -9 0 -25 -9 -34 -20 -10 -11 -22 -20 -28 -20
-5 0 -35 -17 -65 -38 -30 -21 -63 -41 -74 -45 -32 -12 -256 -185 -315 -244
-24 -24 -47 -43 -51 -43 -5 0 -17 -13 -27 -30 -10 -16 -41 -52 -67 -80 -27
-28 -79 -90 -117 -138 -38 -48 -72 -91 -77 -97 -4 -5 -22 -35 -40 -66 -18 -31
-39 -62 -47 -69 -8 -7 -15 -20 -15 -30 0 -9 -9 -25 -20 -35 -11 -10 -20 -23
-20 -29 0 -7 -18 -47 -40 -90 -22 -43 -40 -82 -40 -88 0 -5 -9 -21 -20 -35
-11 -14 -20 -37 -20 -52 0 -14 -7 -34 -15 -44 -7 -11 -16 -36 -20 -57 -4 -22
-13 -44 -20 -50 -8 -7 -17 -33 -21 -58 -3 -26 -13 -54 -21 -63 -8 -10 -17 -43
-20 -75 -3 -33 -12 -68 -19 -79 -7 -11 -16 -65 -19 -120 -4 -55 -14 -127 -22
-160 -22 -87 -22 -511 -1 -575 9 -25 19 -88 23 -140 4 -53 14 -104 21 -115 8
-11 14 -33 14 -50 0 -17 9 -47 20 -68 11 -20 20 -45 20 -54 0 -10 12 -40 25
-68 14 -27 25 -57 25 -66 0 -8 7 -24 15 -35 8 -10 15 -31 15 -45 0 -15 9 -38
20 -52 11 -14 20 -32 20 -41 0 -9 9 -25 19 -35 10 -10 22 -33 26 -49 3 -17 13
-36 21 -43 8 -6 14 -19 14 -29 0 -9 11 -29 25 -44 14 -15 25 -31 25 -36 0 -12
52 -90 61 -90 4 0 10 -13 14 -28 3 -15 32 -55 64 -89 32 -33 78 -87 102 -119
23 -33 57 -75 75 -94 18 -19 46 -49 61 -66 15 -16 75 -68 133 -114 58 -46 112
-91 120 -100 8 -9 33 -27 55 -40 22 -14 62 -41 88 -62 27 -21 55 -38 62 -38 8
0 20 -6 27 -13 13 -13 103 -68 156 -96 15 -8 34 -18 42 -23 8 -4 26 -13 40
-18 14 -6 32 -15 40 -20 8 -6 26 -15 40 -21 14 -6 42 -19 62 -30 20 -10 50
-19 66 -19 16 0 35 -7 42 -15 6 -7 33 -17 58 -21 26 -4 64 -15 84 -25 21 -11
54 -19 74 -19 21 0 46 -8 61 -20 19 -14 41 -20 80 -20 30 0 67 -7 83 -15 16
-8 68 -18 117 -21 48 -4 106 -13 128 -21 22 -8 83 -17 135 -20 63 -4 108 -12
133 -25 40 -20 45 -29 22 -48 -8 -6 -17 -21 -21 -33 -4 -11 -22 -43 -41 -70
-19 -27 -37 -65 -40 -86 -3 -20 -14 -47 -25 -60 -10 -13 -18 -37 -18 -52 0
-16 -9 -46 -20 -66 -11 -21 -20 -51 -20 -66 0 -16 -9 -40 -20 -54 -30 -39 -28
-142 3 -171 13 -12 28 -22 33 -22 12 0 54 -44 77 -82 23 -37 100 -71 164 -73
37 0 62 -8 82 -23 42 -30 161 -32 206 -2 33 22 81 25 135 10 80 -23 200 35
200 97 0 13 7 26 15 29 8 3 17 26 21 52 4 26 13 56 20 67 8 11 14 26 14 34 0
14 51 95 87 137 33 39 145 105 195 114 27 5 57 14 68 20 11 6 57 13 102 17 46
3 94 11 108 18 14 7 50 16 80 20 30 4 61 12 69 19 8 6 32 16 55 23 75 21 141
44 169 59 16 7 41 14 56 14 15 0 36 9 46 20 10 11 26 20 35 20 10 0 29 9 43
20 14 11 34 20 45 20 10 0 31 9 45 20 14 11 31 20 38 20 20 0 119 52 119 62 0
5 14 14 30 19 17 6 30 15 30 20 0 11 -105 59 -129 59 -9 0 -29 9 -46 20 -16
11 -39 20 -50 20 -12 0 -38 9 -60 20 -22 11 -46 20 -54 20 -14 0 -75 26 -143
61 -20 10 -43 19 -51 19 -8 0 -25 8 -38 19 -13 10 -35 21 -49 24 -36 7 -139
52 -153 66 -6 6 -18 11 -28 11 -9 0 -28 9 -42 20 -14 11 -30 20 -36 20 -9 0
-193 87 -231 109 -8 5 -44 23 -80 40 -36 18 -72 36 -80 41 -8 5 -22 11 -30 14
-8 4 -35 19 -60 35 -25 16 -87 51 -139 77 -52 27 -99 53 -105 59 -6 6 -40 26
-76 44 -103 52 -133 69 -139 78 -3 5 -17 14 -31 21 -14 7 -43 24 -65 37 -22
14 -51 30 -65 37 -14 7 -50 29 -80 48 -83 53 -93 59 -120 73 -14 6 -53 30 -87
52 -34 22 -94 61 -135 87 -40 27 -95 63 -123 82 -27 19 -72 50 -99 68 -26 18
-55 40 -65 48 -9 9 -36 29 -61 45 -25 17 -47 33 -50 36 -3 4 -46 40 -95 80
-86 71 -133 112 -195 170 -55 53 -158 187 -185 243 -15 31 -31 59 -36 62 -5 3
-9 13 -9 23 0 10 -9 29 -19 42 -60 77 -60 568 0 695 10 23 19 50 19 60 0 10 8
37 19 59 49 104 103 208 117 223 8 9 37 45 63 79 53 68 199 192 228 193 4 0
31 12 58 25 28 14 55 25 61 25 6 0 17 6 23 14 7 8 28 17 48 21 20 3 45 12 57
19 12 8 89 21 172 31 143 17 157 17 300 1 134 -16 209 -34 264 -67 8 -5 26
-14 40 -19 14 -6 32 -15 40 -20 8 -6 26 -16 40 -22 68 -33 209 -157 298 -262
34 -40 122 -197 122 -217 0 -7 6 -20 13 -28 45 -53 91 -306 83 -461 -6 -120
-27 -246 -49 -305 -9 -22 -16 -47 -17 -56 0 -9 -7 -22 -15 -29 -8 -7 -15 -20
-15 -29 0 -9 -7 -29 -16 -46 -9 -16 -22 -48 -29 -70 -9 -29 -18 -41 -35 -43
-39 -6 -39 11 1 93 21 44 39 89 39 100 0 11 7 28 15 39 8 10 17 39 21 65 4 25
14 60 23 76 25 46 24 433 -1 490 -10 22 -22 58 -27 80 -13 55 -44 133 -69 175
-12 19 -31 53 -43 74 -34 64 -194 220 -290 285 -50 34 -93 61 -97 61 -4 0 -23
8 -42 19 -19 10 -53 21 -75 25 -21 4 -53 15 -70 24 -44 24 -465 24 -510 1 -16
-9 -46 -19 -65 -23 -101 -19 -310 -131 -379 -204 -47 -49 -140 -167 -151 -192
-6 -14 -22 -43 -35 -65 -41 -67 -62 -125 -76 -205 -5 -30 -17 -75 -27 -100
-14 -37 -17 -80 -16 -250 0 -217 8 -264 65 -386 10 -23 19 -46 19 -51 0 -6 7
-16 15 -23 8 -6 30 -35 49 -63 74 -111 328 -343 516 -473 36 -24 107 -73 158
-109 51 -36 96 -65 101 -65 4 0 18 -11 31 -25 13 -14 27 -25 32 -25 4 0 30
-15 56 -33 26 -18 58 -38 72 -45 14 -7 57 -33 95 -57 39 -24 84 -51 100 -60
17 -8 44 -24 60 -35 17 -11 46 -29 65 -40 19 -11 53 -32 75 -45 22 -13 49 -28
61 -33 11 -6 41 -24 66 -41 26 -17 61 -38 80 -47 18 -8 51 -25 73 -38 22 -13
83 -45 135 -71 52 -26 122 -61 155 -78 176 -89 252 -127 275 -137 14 -5 32
-14 40 -19 8 -5 26 -14 40 -20 14 -6 32 -15 40 -19 60 -34 102 -52 118 -52 11
0 25 -7 32 -15 7 -8 18 -15 25 -15 6 0 33 -11 59 -25 26 -14 53 -25 59 -25 7
0 29 -9 50 -20 20 -11 42 -20 49 -20 6 0 43 -16 82 -35 75 -36 132 -58 206
-80 25 -7 62 -20 82 -29 21 -9 47 -16 58 -16 11 0 39 -17 63 -39 34 -31 57
-42 120 -57 69 -16 86 -16 145 -5 37 7 91 17 120 22 78 14 249 140 276 203 8
17 34 53 60 81 25 27 46 52 46 55 0 3 -4 20 -10 39 -8 28 -6 38 10 59 11 13
20 29 20 35 0 6 6 18 14 26 8 9 28 43 46 76 17 33 43 78 56 100 13 22 28 51
34 65 5 14 15 32 20 40 6 8 13 22 16 30 10 26 23 53 54 110 17 30 30 60 30 66
0 6 8 22 19 35 10 13 22 35 26 49 4 14 13 32 20 40 8 8 16 27 20 42 4 15 13
32 21 39 8 6 14 18 14 27 0 15 19 60 68 162 22 45 32 56 57 60 25 4 31 11 35
41 4 19 14 46 23 59 9 14 17 34 17 46 0 12 8 32 18 45 11 13 22 41 25 63 3 21
13 46 22 56 8 9 15 33 15 54 0 20 9 58 19 84 11 26 22 64 25 86 3 21 12 46 21
56 8 9 15 32 15 51 0 19 9 48 20 64 13 19 20 47 20 78 0 26 7 64 16 85 9 20
20 70 25 111 4 40 14 80 20 87 7 8 16 67 20 132 4 64 14 135 23 157 12 33 15
98 16 367 0 304 -1 331 -20 378 -11 28 -20 74 -20 103 0 33 -7 66 -20 90 -11
20 -20 48 -20 62 0 14 -9 43 -20 65 -11 22 -20 47 -21 57 0 10 -14 41 -30 68
-16 28 -36 65 -44 83 -8 17 -19 32 -24 32 -5 0 -14 15 -20 33 -13 38 -182 215
-261 272 -62 46 -155 95 -179 95 -9 0 -29 9 -46 20 -18 12 -47 20 -71 20 -23
0 -61 7 -85 16 -25 9 -94 18 -162 21 -65 3 -119 9 -121 12 -7 11 22 216 36
251 23 60 23 60 114 60 67 0 94 5 127 21 23 12 45 27 50 33 12 18 -4 357 -18
386 -7 14 -16 45 -20 69 -9 56 -54 146 -100 201 -43 52 -50 76 -36 137 5 26
15 107 22 179 13 149 -1 357 -27 408 -8 16 -18 50 -21 75 -4 25 -15 60 -25 76
-10 17 -18 39 -18 51 0 11 -5 25 -12 32 -9 9 -9 18 0 37 16 35 15 100 -2 114
-8 7 -17 23 -20 37 -4 14 -22 47 -41 74 -19 28 -35 54 -35 59 0 5 -18 28 -40
51 -22 23 -57 63 -77 88 -38 49 -53 64 -138 141 -139 127 -177 154 -302 216
-39 19 -75 39 -78 45 -3 5 -17 10 -29 10 -13 0 -34 8 -47 19 -13 10 -46 22
-74 26 -27 4 -62 13 -77 21 -21 11 -97 15 -335 18 -169 2 -348 1 -398 -3z
m1623 -933 c3 -16 -5 -18 -67 -18 -69 0 -98 13 -70 31 8 5 41 8 74 7 48 -2 60
-7 63 -20z m-1439 -652 c56 -15 91 -40 91 -63 0 -24 -29 -26 -66 -3 -29 18
-50 23 -113 23 -66 0 -84 -4 -122 -27 -54 -33 -89 -61 -89 -74 0 -5 -10 -22
-22 -38 -21 -26 -23 -39 -22 -144 0 -99 3 -121 22 -155 12 -21 22 -44 22 -50
0 -6 13 -35 29 -65 16 -30 36 -68 44 -85 8 -16 40 -57 71 -90 46 -49 64 -62
104 -70 43 -9 47 -12 47 -40 0 -20 -6 -31 -17 -33 -22 -4 -116 39 -144 66 -56
54 -115 141 -144 212 -5 14 -14 32 -19 40 -25 40 -50 113 -66 191 -16 82 -16
91 0 165 10 44 24 90 33 104 26 41 114 120 141 126 14 3 40 10 56 14 47 13
105 11 164 -4z m1476 -113 c30 -30 15 -104 -31 -156 -21 -23 -50 -62 -64 -85
-28 -47 -43 -54 -112 -54 -35 0 -59 6 -78 20 -15 11 -43 24 -62 27 -23 4 -43
17 -57 36 -19 26 -28 29 -74 29 -121 0 -128 27 -22 88 41 23 78 42 83 42 5 0
20 8 33 18 37 29 63 34 214 41 77 4 143 8 147 9 4 1 14 -6 23 -15z m-1094
-388 c6 -171 20 -249 54 -301 8 -13 15 -32 15 -42 0 -10 7 -27 15 -38 8 -10
20 -37 26 -59 6 -22 16 -43 23 -47 19 -13 77 -9 132 9 66 21 92 11 129 -47 31
-50 50 -58 75 -35 14 13 44 20 95 24 69 6 78 9 105 40 29 31 34 33 76 26 48
-7 107 7 137 33 25 22 73 18 132 -10 38 -18 49 -28 47 -43 -6 -34 -18 -37 -71
-20 -54 18 -94 14 -123 -12 -11 -10 -37 -15 -79 -15 -55 0 -68 -4 -98 -29 -29
-24 -45 -29 -89 -29 -54 0 -98 -16 -121 -44 -8 -9 -28 -16 -46 -16 -27 0 -37
7 -56 38 -13 20 -27 44 -30 53 -10 24 -53 29 -147 18 -56 -6 -89 -6 -102 1
-20 11 -70 98 -70 122 0 14 -32 101 -61 164 -16 36 -19 67 -19 231 0 104 3
193 7 197 4 4 14 5 23 4 12 -3 16 -31 21 -173z m984 -915 c0 -9 -15 -17 -45
-22 -24 -4 -58 -14 -76 -23 -18 -8 -39 -15 -49 -15 -9 0 -33 -9 -53 -19 -20
-11 -66 -34 -102 -51 -36 -17 -74 -37 -85 -43 -34 -20 -135 -119 -187 -182
-65 -81 -60 -73 -89 -135 -60 -127 -69 -148 -69 -165 0 -10 -8 -32 -19 -49
-10 -17 -21 -54 -24 -82 -3 -28 -16 -81 -28 -119 -20 -63 -23 -67 -36 -49 -17
22 -13 83 11 167 8 28 19 70 24 92 16 64 43 137 62 165 5 8 15 26 20 40 6 14
21 43 35 65 13 22 28 47 32 56 22 44 165 185 233 229 41 28 84 57 95 65 10 8
25 15 32 15 7 0 30 9 50 20 21 11 47 20 59 20 12 0 41 9 65 20 53 24 144 24
144 0z m-1262 -194 c12 -14 35 -39 51 -56 33 -36 63 -50 111 -50 24 0 48 -11
83 -39 27 -22 52 -37 55 -34 10 10 67 -9 67 -22 0 -18 -23 -25 -77 -25 -38 0
-54 6 -89 35 -27 22 -60 39 -88 44 -48 9 -60 16 -112 64 -23 21 -38 27 -53 22
-12 -3 -74 -58 -139 -121 -64 -63 -121 -113 -127 -111 -5 2 -11 13 -13 24 -3
20 45 72 205 223 82 78 93 82 126 46z m1444 -308 c23 -24 60 -60 82 -81 46
-42 51 -62 19 -71 -13 -3 -145 -6 -293 -6 l-270 0 -50 -27 c-103 -54 -191
-181 -153 -220 14 -13 39 -14 229 -4 299 15 395 15 402 -3 3 -8 -1 -20 -9 -27
-20 -16 -284 -30 -511 -27 l-178 3 -3 52 c-2 43 2 61 29 109 37 65 85 116 132
140 17 9 36 23 40 30 6 11 38 14 130 15 67 1 181 4 252 8 l130 6 3 27 c5 42
-48 62 -169 63 -80 0 -102 4 -116 18 -29 29 -1 37 138 37 l126 0 40 -42z
m-1486 -140 c39 -53 69 -98 69 -105 0 -3 17 -31 37 -62 33 -50 50 -82 91 -171
7 -14 16 -32 20 -40 30 -53 52 -101 52 -112 1 -7 9 -31 20 -53 11 -22 19 -48
20 -57 0 -10 9 -40 20 -68 11 -28 20 -60 20 -71 0 -11 13 -48 29 -82 28 -60
90 -132 271 -316 66 -68 292 -311 343 -370 32 -36 30 -66 -3 -56 -20 6 -81 67
-216 215 -131 143 -204 220 -304 323 -106 109 -145 169 -157 240 -3 21 -14 55
-24 75 -11 20 -19 48 -19 63 0 15 -6 32 -14 38 -8 7 -17 28 -20 49 -7 37 -18
64 -73 175 -15 32 -34 70 -41 85 -7 15 -17 34 -23 42 -5 8 -15 26 -22 40 -6
14 -40 67 -74 119 -35 51 -63 102 -63 112 0 30 34 22 61 -13z m1699 -1198 c0
-16 -4 -31 -10 -35 -5 -3 -23 -34 -41 -68 -69 -136 -280 -367 -426 -466 -38
-25 -80 -57 -93 -70 -14 -13 -41 -33 -60 -46 -19 -12 -58 -44 -86 -71 -29 -27
-67 -63 -85 -80 -56 -52 -134 -145 -182 -219 -57 -86 -87 -129 -109 -157 -10
-11 -18 -24 -18 -29 0 -15 -54 -89 -65 -89 -27 0 -34 22 -18 54 9 17 19 33 22
36 4 3 15 18 26 34 45 65 64 102 65 121 0 34 -47 122 -87 161 -13 11 -23 26
-23 32 0 18 -104 145 -195 237 -60 60 -222 203 -292 258 -61 48 -83 84 -59 93
25 10 124 -68 325 -254 111 -104 267 -291 320 -384 47 -84 71 -85 126 -3 61
92 238 260 380 360 214 151 422 371 505 535 22 44 61 91 71 85 5 -4 9 -19 9
-35z m-2132 -2353 c5 -26 -16 -47 -47 -47 -15 0 -52 -9 -84 -20 -31 -11 -68
-20 -81 -20 -14 0 -45 -8 -68 -19 -24 -10 -59 -24 -78 -31 -87 -30 -117 -42
-147 -55 -17 -8 -35 -15 -40 -15 -7 0 -64 -28 -148 -74 -12 -6 -51 -35 -88
-64 -67 -54 -99 -62 -105 -28 -4 21 72 97 128 127 19 11 44 24 55 31 44 25 51
29 75 39 14 6 50 23 80 36 119 54 193 81 260 93 25 5 59 15 75 24 17 9 44 16
60 16 17 1 44 7 60 15 41 19 89 15 93 -8z m-578 -340 c0 -16 -28 -44 -112
-109 -83 -66 -100 -90 -178 -263 -12 -27 -31 -67 -41 -87 -11 -20 -19 -45 -19
-55 0 -10 -11 -45 -25 -78 -19 -49 -28 -60 -47 -60 -15 0 -22 5 -20 14 2 8 7
36 12 63 5 26 16 61 25 77 8 17 15 38 15 48 0 10 9 35 20 56 11 20 20 45 20
56 0 10 7 24 14 31 8 6 20 27 26 46 6 19 15 34 20 34 5 0 13 15 19 33 25 74
176 205 239 206 20 1 32 -4 32 -12z m190 -137 c0 -19 -22 -47 -112 -141 -42
-43 -108 -133 -108 -146 0 -4 -8 -16 -18 -27 -10 -12 -28 -46 -41 -76 -13 -30
-30 -70 -38 -89 -8 -19 -18 -57 -24 -85 -10 -55 -56 -116 -71 -94 -14 23 -8
92 12 133 11 22 19 50 20 61 0 12 9 33 20 47 11 14 20 30 20 36 0 18 51 113
84 155 16 21 42 57 57 80 45 67 150 166 176 166 16 0 23 -6 23 -20z m295 -100
c12 -19 -5 -48 -43 -73 -100 -67 -246 -243 -273 -330 -6 -18 -15 -41 -21 -51
-6 -11 -16 -40 -22 -65 -9 -39 -15 -46 -35 -46 -35 0 -43 33 -20 81 10 21 18
45 19 52 0 12 7 29 60 132 28 55 86 126 165 202 98 93 153 125 170 98z"/>
<path d="M10540 5656 c0 -109 3 -138 16 -150 8 -9 21 -16 28 -16 17 0 46 -32
46 -51 1 -14 44 -69 55 -69 3 0 5 10 5 23 0 14 -22 43 -60 81 l-60 58 0 117
c0 78 4 121 12 129 9 9 6 12 -15 12 l-27 0 0 -134z"/>
<path d="M10625 5760 c-3 -5 5 -12 19 -16 13 -3 27 -12 30 -20 3 -8 13 -14 23
-14 20 -1 46 -32 57 -67 9 -28 26 -30 26 -3 0 31 -104 130 -137 130 -6 0 -15
-4 -18 -10z"/>
<path d="M10790 5568 c0 -18 5 -40 10 -48 7 -11 10 -2 10 33 0 26 -4 47 -10
47 -5 0 -10 -15 -10 -32z"/>
<path d="M9407 5453 c-4 -3 -7 -70 -7 -149 0 -155 0 -154 61 -154 l29 0 0
-852 c0 -469 3 -863 6 -876 l6 -22 537 2 536 3 5 745 c3 410 1 797 -4 860 -7
101 -13 124 -44 190 -41 87 -124 176 -193 207 -119 53 -120 53 -536 53 -214 0
-393 -3 -396 -7z m762 -328 c63 -39 86 -79 100 -170 7 -53 11 -269 11 -649 0
-516 -2 -571 -17 -588 -15 -16 -35 -18 -218 -18 -158 0 -205 3 -221 14 -18 14
-19 35 -22 702 -2 605 -1 690 13 710 15 23 19 24 165 24 143 0 152 -1 189 -25z"/>
<path d="M11833 5448 c-4 -7 -8 -260 -9 -563 0 -361 -5 -577 -12 -628 -7 -43
-12 -98 -12 -122 0 -23 -7 -56 -15 -71 -8 -16 -15 -42 -15 -59 0 -16 -7 -39
-15 -49 -8 -11 -15 -28 -15 -38 0 -15 -108 -132 -151 -164 -31 -23 -141 -54
-190 -54 -98 0 -89 -76 -89 721 l0 700 -147 -3 -148 -3 0 -855 0 -855 220 -3
c178 -2 227 0 257 13 21 8 51 15 66 15 15 0 36 7 46 15 11 8 28 15 37 15 27 0
146 85 217 154 63 60 162 198 162 223 0 7 4 21 10 31 16 27 41 103 49 147 4
22 13 50 19 62 9 16 12 190 10 700 l-3 678 -132 3 c-98 2 -134 -1 -140 -10z"/>
<path d="M10700 5336 c0 -14 5 -26 10 -26 6 0 10 9 10 19 0 11 -4 23 -10 26
-6 4 -10 -5 -10 -19z"/>
<path d="M10783 5285 l-21 -25 24 0 c19 0 24 5 24 25 0 31 0 31 -27 0z"/>
<path d="M10730 5290 c0 -5 5 -10 11 -10 5 0 7 5 4 10 -3 6 -8 10 -11 10 -2 0
-4 -4 -4 -10z"/>
<path d="M15320 4632 c0 -10 -6 -26 -12 -35 -12 -15 -31 -16 -200 -8 -149 8
-199 7 -245 -4 -32 -8 -76 -15 -98 -15 -22 0 -58 -9 -80 -20 -22 -11 -45 -19
-51 -20 -22 0 -77 -68 -95 -116 -25 -64 -27 -344 -4 -410 16 -48 109 -143 140
-144 11 0 31 -7 45 -15 20 -11 81 -14 303 -15 l277 0 10 -26 c13 -34 13 -130
-1 -155 -6 -11 -31 -30 -57 -42 -45 -21 -63 -22 -407 -27 l-360 -5 -3 -65 c-2
-35 0 -75 3 -87 l5 -23 377 0 c501 0 571 12 679 113 28 26 63 71 77 100 l27
52 0 493 0 492 -165 0 c-153 0 -165 -1 -165 -18z m-29 -398 c21 -23 24 -34 24
-110 0 -64 -4 -87 -15 -94 -8 -5 -109 -10 -224 -10 -202 0 -211 1 -233 22 -20
18 -23 31 -23 89 0 58 4 72 26 98 l26 31 197 0 198 0 24 -26z"/>
<path d="M16105 4590 l-260 -5 0 -150 0 -150 285 -6 c157 -4 298 -10 313 -14
16 -4 39 -24 52 -44 21 -30 25 -48 25 -108 0 -107 10 -103 -253 -103 -179 -1
-226 -3 -241 -15 -11 -8 -27 -15 -35 -15 -28 0 -110 -80 -131 -127 -19 -43
-20 -63 -18 -247 l3 -201 487 -3 487 -2 7 45 c3 25 4 215 2 422 -4 339 -7 382
-23 418 -10 22 -27 59 -38 82 -23 52 -107 136 -156 158 -20 9 -48 23 -63 31
-14 7 -37 14 -51 14 -13 0 -41 7 -60 15 -20 8 -44 14 -54 13 -10 -1 -135 -5
-278 -8z m409 -833 c-1 -21 -5 -41 -8 -45 -4 -4 -85 -7 -179 -7 l-172 0 -3 33
c-6 64 -10 63 185 60 l178 -3 -1 -38z"/>
<path d="M17000 4570 c-12 -23 -8 -435 5 -505 11 -56 82 -127 171 -171 l70
-34 250 0 c362 0 463 -22 464 -100 0 -15 -5 -31 -12 -38 -9 -9 -124 -12 -456
-12 -286 0 -450 -4 -463 -10 -17 -10 -19 -22 -19 -134 0 -103 3 -127 18 -145
l17 -21 565 2 565 3 3 185 c2 149 -1 194 -14 235 -47 145 -106 197 -254 224
-36 7 -191 16 -345 20 -247 7 -284 10 -310 26 -46 29 -55 45 -55 102 0 29 1
54 3 55 1 2 220 5 487 8 l485 5 0 160 0 160 -582 3 c-577 2 -582 2 -593 -18z"/>
<path d="M12293 4563 c-16 -6 -18 -255 -3 -284 10 -18 24 -19 308 -19 l297 0
27 -25 c15 -14 32 -44 39 -67 11 -43 8 -132 -5 -146 -4 -4 -101 -9 -214 -12
-267 -8 -297 -15 -378 -96 -58 -58 -61 -63 -73 -135 -7 -43 -11 -136 -9 -224
l3 -150 485 0 485 0 6 370 c5 393 0 493 -34 565 -23 50 -116 149 -162 173
-109 58 -99 57 -442 56 -175 0 -324 -3 -330 -6z m654 -775 c21 -28 22 -49 3
-68 -18 -18 -34 -20 -178 -20 -161 0 -182 5 -182 40 0 8 7 26 16 38 15 21 21
22 173 22 115 0 161 -3 168 -12z"/>
<path d="M13440 3985 l0 -585 150 0 149 0 3 315 3 315 175 175 175 175 135 0
c74 0 141 4 148 9 9 5 12 31 10 92 l-3 84 -270 3 -271 2 -29 -30 c-38 -39 -64
-39 -71 0 l-6 30 -149 0 -149 0 0 -585z"/>
<path d="M7621 3538 c-17 -23 -31 -50 -31 -59 0 -9 -7 -22 -15 -29 -8 -7 -15
-18 -15 -24 0 -6 -11 -33 -25 -61 -13 -27 -25 -57 -25 -66 0 -9 -7 -22 -15
-29 -8 -7 -15 -17 -15 -24 0 -10 -43 -106 -61 -136 -5 -8 -12 -23 -16 -33 -3
-10 -20 -46 -38 -80 -18 -34 -56 -106 -84 -161 -28 -54 -60 -110 -71 -124 -11
-13 -20 -29 -20 -35 0 -6 -7 -19 -16 -28 -16 -17 -15 -19 10 -29 21 -8 34 -6
64 10 20 11 55 20 78 20 27 0 49 7 64 20 13 11 34 20 47 20 14 0 36 9 50 20
14 11 36 20 48 20 12 0 34 9 48 20 14 11 34 20 45 20 10 0 31 9 45 20 14 11
32 20 40 20 7 0 24 9 37 20 13 11 31 20 40 20 10 0 29 9 43 20 14 11 31 20 39
20 21 0 62 48 89 105 29 60 32 139 6 175 -9 14 -17 32 -17 42 0 62 -190 310
-272 353 -26 14 -27 13 -57 -27z"/>
<path d="M12705 2574 c-57 -29 -70 -59 -73 -167 -4 -93 -3 -100 23 -137 17
-24 38 -41 56 -45 16 -4 31 -11 34 -16 4 -5 25 -9 48 -9 68 0 87 -20 87 -90 0
-56 -2 -59 -34 -79 -27 -17 -50 -21 -119 -21 -93 0 -101 -5 -90 -60 l6 -30
106 0 c86 0 114 4 145 20 62 31 76 64 76 178 0 97 0 98 -34 135 -30 33 -39 37
-80 37 -27 0 -63 8 -86 20 l-40 20 0 66 c0 91 15 103 130 104 47 0 91 4 98 9
8 5 12 22 10 42 l-3 34 -115 2 c-87 2 -122 -2 -145 -13z"/>
<path d="M13082 2578 c-6 -6 -12 -24 -12 -39 0 -30 19 -39 87 -39 23 0 45 -6
50 -12 4 -7 10 -137 13 -288 l5 -275 31 -3 c17 -2 36 3 42 11 8 9 13 100 14
288 l3 274 40 3 c80 5 86 9 83 50 l-3 37 -170 3 c-124 2 -174 -1 -183 -10z"/>
<path d="M13537 2583 c-4 -3 -7 -129 -7 -279 0 -265 1 -274 22 -306 38 -57 80
-78 154 -78 67 0 95 11 142 56 l22 22 -2 293 -3 294 -24 3 c-47 7 -51 -13 -51
-266 0 -242 -3 -259 -44 -294 -31 -25 -50 -22 -90 16 l-36 33 0 257 0 256 -38
0 c-21 0 -42 -3 -45 -7z"/>
<path d="M13992 2258 l3 -333 107 -3 c101 -2 110 -1 148 23 22 14 45 36 50 49
5 13 14 27 19 31 7 4 11 82 11 225 0 202 -2 222 -21 259 -34 67 -71 81 -205
81 l-114 0 2 -332z m200 230 c44 -37 48 -55 48 -236 l0 -174 -37 -35 c-32 -29
-44 -33 -78 -31 l-40 3 -3 230 c-1 126 0 235 2 242 7 17 87 17 108 1z"/>
<path d="M14425 2578 c-3 -7 -4 -157 -3 -333 l3 -320 30 0 30 0 5 285 c3 157
3 305 0 330 -4 40 -8 45 -33 48 -16 2 -29 -2 -32 -10z"/>
<path d="M14670 2572 c-61 -41 -59 -34 -60 -318 0 -290 -5 -269 72 -317 40
-25 133 -23 184 5 74 39 79 59 79 312 0 195 -2 226 -19 262 -25 54 -69 74
-162 73 -48 0 -77 -5 -94 -17z m154 -93 l26 -20 0 -202 -1 -202 -35 -22 c-44
-28 -54 -28 -88 -2 l-26 20 0 206 c0 200 1 205 23 224 29 24 68 24 101 -2z"/>
</g>
</svg>
