<?xml version="1.0" standalone="no"?>
<!DOCTYPE svg PUBLIC "-//W3C//DTD SVG 20010904//EN"
 "http://www.w3.org/TR/2001/REC-SVG-20010904/DTD/svg10.dtd">
<svg version="1.0" xmlns="http://www.w3.org/2000/svg"
 width="1920.000000pt" height="1080.000000pt" viewBox="0 0 1920.000000 1080.000000"
 preserveAspectRatio="xMidYMid meet">

<g transform="translate(0.000000,1080.000000) scale(0.100000,-0.100000)"
fill="whitesmoke" stroke="none">
<path d="M3340 7910 c-87 -6 -122 -14 -190 -42 -117 -48 -152 -66 -216 -110
-125 -88 -162 -119 -205 -174 -24 -31 -49 -61 -54 -68 -18 -20 -75 -107 -75
-115 0 -4 -11 -31 -25 -59 -14 -29 -25 -58 -25 -66 0 -8 -4 -18 -10 -21 -5 -3
-10 -18 -10 -33 0 -14 -6 -44 -14 -67 -22 -63 -37 -259 -26 -340 5 -38 9 -92
10 -120 0 -46 -4 -54 -44 -95 -23 -25 -86 -94 -140 -155 -81 -93 -103 -111
-134 -117 -68 -13 -132 -32 -132 -40 0 -5 -7 -8 -15 -8 -13 0 -65 -20 -107
-41 -10 -5 -26 -9 -36 -9 -10 0 -27 -7 -38 -15 -10 -8 -27 -15 -36 -15 -10 0
-18 -4 -18 -10 0 -5 -6 -10 -14 -10 -17 0 -80 -32 -84 -42 -2 -5 -8 -8 -14 -8
-6 0 -26 -11 -44 -25 -18 -14 -35 -25 -38 -25 -22 0 -201 -143 -255 -204 -14
-16 -30 -34 -36 -40 -57 -63 -119 -142 -150 -191 -53 -82 -145 -265 -145 -286
0 -10 -4 -21 -10 -24 -5 -3 -10 -16 -10 -28 0 -12 -7 -31 -15 -41 -8 -11 -15
-30 -15 -42 0 -13 -5 -26 -10 -29 -6 -3 -10 -20 -10 -36 0 -17 -5 -40 -12 -52
-42 -79 -42 -625 0 -704 7 -12 12 -33 12 -47 0 -14 5 -28 10 -31 6 -3 10 -13
10 -22 0 -8 6 -29 14 -46 8 -18 21 -52 30 -77 22 -66 94 -204 148 -284 53 -77
179 -228 226 -270 89 -80 253 -206 268 -206 3 0 28 -15 57 -33 73 -45 213
-112 267 -127 25 -6 60 -18 78 -26 18 -8 42 -14 52 -14 11 0 28 -4 38 -9 33
-17 163 -40 327 -59 72 -8 125 -24 125 -38 0 -3 -16 -30 -35 -60 -19 -30 -35
-61 -35 -68 0 -8 -6 -27 -14 -43 -8 -15 -20 -48 -26 -73 -6 -25 -18 -58 -26
-73 -15 -30 -18 -85 -6 -102 4 -6 20 -18 35 -28 15 -10 33 -29 39 -42 12 -26
77 -55 125 -55 17 0 36 -7 43 -15 16 -19 77 -19 112 -1 18 9 54 14 100 13 78
-1 118 17 118 55 0 9 5 20 10 23 6 3 10 14 10 23 0 9 7 30 15 46 8 15 15 33
15 38 0 19 63 90 104 115 45 29 81 40 171 53 67 9 141 28 167 41 10 5 26 9 36
9 10 0 22 4 28 9 5 4 34 16 64 25 53 16 74 25 220 95 66 32 107 58 99 64 -4 3
-65 28 -114 47 -11 4 -42 15 -70 25 -61 20 -73 25 -150 60 -33 15 -69 31 -80
36 -34 13 -199 89 -225 104 -14 7 -68 35 -120 63 -171 89 -327 175 -400 220
-19 12 -42 25 -50 29 -13 5 -171 102 -220 133 -8 5 -28 17 -44 26 -33 19 -296
207 -340 244 -60 50 -121 106 -154 140 -37 38 -122 163 -122 178 0 6 -6 23
-14 39 -22 41 -40 193 -32 255 4 29 10 73 13 98 2 25 11 59 19 77 8 17 14 36
14 42 0 6 4 19 9 29 4 9 16 35 27 57 29 63 102 161 147 200 38 33 158 96 232
122 71 26 204 36 303 23 108 -13 110 -13 205 -61 81 -40 139 -87 215 -172 36
-42 101 -161 120 -222 51 -168 37 -361 -37 -515 -11 -24 -21 -49 -21 -56 0
-16 -27 -37 -39 -30 -5 4 0 26 13 54 13 26 30 74 40 107 10 33 22 70 27 83 16
40 11 258 -8 316 -28 89 -41 119 -79 188 -23 42 -124 139 -189 183 -70 47 -91
57 -166 79 -75 22 -285 22 -336 1 -19 -8 -42 -15 -50 -15 -9 0 -49 -16 -90
-36 -123 -60 -234 -184 -282 -314 -46 -123 -62 -361 -31 -450 4 -14 11 -37 14
-52 7 -33 79 -139 132 -194 45 -48 220 -193 294 -244 28 -19 58 -41 68 -47 49
-36 299 -193 306 -193 3 0 41 -23 85 -50 44 -28 83 -50 87 -50 3 0 18 -8 32
-19 15 -10 54 -33 87 -51 82 -45 82 -45 155 -81 36 -18 110 -54 165 -82 123
-61 262 -125 340 -156 11 -5 47 -20 80 -34 88 -38 198 -77 216 -77 9 0 26 -11
38 -24 36 -38 109 -51 195 -36 39 7 87 22 106 34 42 25 120 95 120 108 0 5 14
23 30 41 24 24 30 39 27 62 -4 27 2 40 70 150 18 29 207 411 231 467 11 25 28
49 38 52 11 3 27 27 37 53 10 27 22 55 26 63 5 9 12 30 15 48 4 17 12 34 17
37 5 4 9 18 9 33 0 15 11 59 25 97 13 39 25 79 25 91 0 11 3 24 7 28 14 13 50
185 62 296 5 41 14 88 20 103 17 44 14 432 -4 482 -8 22 -14 57 -15 77 0 20
-4 40 -10 43 -5 3 -10 17 -10 31 0 13 -4 32 -10 42 -5 9 -18 37 -29 62 -40 90
-72 136 -148 213 -115 116 -215 161 -388 173 -117 8 -112 5 -107 71 2 32 12
77 23 101 l18 42 55 0 c62 0 102 14 109 39 6 23 -9 218 -21 266 -14 59 -37
107 -66 138 -25 27 -26 32 -20 110 4 45 10 100 13 122 11 62 -24 290 -49 320
-7 9 -13 40 -12 73 0 64 -14 104 -65 176 -67 94 -213 238 -288 283 -21 13
-136 69 -170 83 -91 38 -310 55 -515 40z m990 -590 c0 -5 -20 -10 -45 -10 -25
0 -45 5 -45 10 0 6 20 10 45 10 25 0 45 -4 45 -10z m-874 -425 c13 -8 24 -20
24 -25 0 -13 -37 -13 -45 0 -3 6 -33 10 -66 10 -105 0 -169 -64 -169 -169 0
-116 121 -331 186 -331 27 0 43 -25 27 -41 -16 -16 -73 13 -115 57 -44 47
-108 178 -124 254 -32 153 68 279 210 265 27 -2 59 -11 72 -20z m892 -57 c22
-22 13 -65 -24 -110 -19 -23 -42 -51 -50 -60 -17 -22 -73 -24 -100 -3 -10 8
-29 15 -40 15 -12 0 -28 10 -36 22 -11 17 -24 22 -49 20 -19 -1 -41 2 -49 8
-13 8 -13 11 0 23 8 8 42 29 75 47 51 28 74 34 155 40 52 4 97 8 101 8 3 1 10
-3 17 -10z m-688 -235 c0 -112 21 -193 80 -303 8 -16 52 -18 104 -4 26 6 33 3
62 -31 28 -34 34 -37 48 -26 9 8 37 15 63 17 30 2 54 11 69 25 16 15 30 20 46
16 12 -4 41 2 66 13 25 11 50 20 57 20 25 0 76 -32 73 -47 -4 -17 -3 -17 -51
-8 -26 5 -47 2 -71 -9 -19 -9 -47 -16 -63 -16 -16 0 -38 -7 -49 -15 -10 -8
-35 -15 -55 -15 -21 0 -47 -9 -62 -20 -37 -30 -61 -25 -83 16 -19 35 -19 35
-84 34 -36 -1 -72 -1 -81 -1 -17 1 -30 25 -61 116 -11 33 -24 64 -29 70 -5 5
-9 67 -9 137 0 107 2 128 15 128 12 0 15 -18 15 -97z m620 -583 c0 -6 -6 -12
-12 -14 -7 -2 -33 -9 -58 -16 -74 -21 -198 -87 -246 -132 -50 -47 -134 -167
-134 -191 0 -9 -4 -19 -10 -22 -5 -3 -10 -13 -10 -22 0 -8 -6 -29 -14 -46 -8
-18 -16 -48 -19 -67 -3 -19 -12 -51 -20 -70 -13 -30 -16 -32 -22 -16 -8 17 12
118 37 191 44 127 137 253 237 319 99 66 271 120 271 86z m-769 -150 c28 -29
47 -40 68 -40 17 0 42 -11 59 -25 17 -14 42 -25 56 -25 29 0 35 -14 10 -24
-31 -12 -63 -6 -92 19 -17 14 -39 25 -49 25 -11 0 -39 14 -62 30 -50 36 -52
36 -141 -55 -61 -62 -90 -79 -90 -53 0 13 180 188 194 188 4 0 26 -18 47 -40z
m907 -191 c29 -29 51 -57 49 -63 -2 -7 -67 -13 -193 -16 -117 -3 -197 -9 -209
-17 -48 -28 -101 -103 -91 -130 5 -13 32 -14 200 -7 140 5 195 4 200 -5 14
-21 -39 -28 -239 -32 l-200 -4 -3 29 c-4 35 27 103 60 132 74 63 76 64 237 64
159 0 184 7 141 42 -16 13 -39 18 -85 18 -40 0 -67 5 -74 13 -18 22 -3 27 78
27 l76 0 53 -51z m-950 -76 c50 -72 108 -177 147 -268 9 -22 21 -49 26 -60 17
-40 39 -110 39 -128 0 -32 37 -91 92 -147 140 -145 328 -352 328 -360 0 -6 -6
-10 -13 -10 -14 0 -68 54 -282 284 l-120 128 -47 137 c-55 156 -90 231 -165
352 -29 47 -53 91 -53 98 0 15 30 -1 48 -26z m1062 -736 c0 -63 -176 -282
-290 -360 -160 -111 -267 -220 -373 -379 -39 -60 -74 -108 -78 -108 -23 0 -16
28 20 80 23 32 41 67 41 78 0 58 -199 290 -352 411 -38 29 -68 59 -68 67 0 8
3 14 6 14 20 0 244 -189 286 -243 15 -17 38 -45 53 -62 14 -16 42 -56 61 -87
20 -32 39 -58 44 -58 5 0 21 17 37 38 46 62 143 153 258 242 158 122 261 234
319 348 17 33 36 43 36 19z m-1345 -1496 c0 -8 -26 -21 -65 -32 -238 -70 -339
-113 -424 -180 -26 -21 -52 -36 -57 -33 -60 37 177 171 411 233 25 7 56 16 70
21 35 12 65 8 65 -9z m-360 -211 c3 -5 -21 -29 -55 -52 -55 -40 -64 -52 -115
-154 -30 -62 -55 -121 -55 -132 0 -12 -4 -24 -10 -27 -5 -3 -10 -15 -10 -25 0
-23 -12 -31 -28 -21 -21 13 27 158 92 276 33 60 59 90 106 121 38 25 65 30 75
14z m118 -87 c-3 -10 -25 -38 -48 -63 -79 -84 -132 -170 -154 -250 -17 -59
-33 -92 -48 -98 -15 -4 -18 58 -5 86 5 9 16 32 25 50 9 19 17 38 17 44 0 18
90 149 137 199 46 49 89 67 76 32z m182 -75 c0 -8 -25 -35 -55 -59 -70 -57
-130 -143 -154 -220 -21 -64 -31 -78 -49 -60 -24 24 50 183 120 257 86 90 138
121 138 82z"/>
<path d="M6856 7404 c-3 -9 -6 -64 -6 -123 0 -114 4 -124 52 -154 41 -25 44
-21 9 15 -31 32 -31 32 -31 139 0 62 4 110 10 114 6 4 8 11 5 16 -10 14 -32
11 -39 -7z"/>
<path d="M6945 7375 c11 -8 25 -18 31 -23 6 -5 20 -13 32 -16 11 -4 29 -25 39
-46 20 -43 33 -51 33 -20 0 32 -95 120 -128 120 -26 -1 -26 -1 -7 -15z"/>
<path d="M7090 7195 c0 -19 5 -35 10 -35 6 0 10 16 10 35 0 19 -4 35 -10 35
-5 0 -10 -16 -10 -35z"/>
<path d="M5780 6961 l0 -140 43 -8 42 -9 3 -817 2 -817 23 -5 c12 -3 240 -4
507 -3 l485 3 5 710 c5 697 -1 902 -27 950 -6 11 -19 38 -29 59 -23 49 -118
145 -165 168 -96 46 -119 48 -513 48 l-376 0 0 -139z m716 -167 c45 -19 90
-80 99 -134 12 -77 17 -1167 5 -1190 -10 -19 -21 -20 -210 -20 -167 0 -201 2
-214 16 -14 14 -16 88 -16 663 0 502 3 651 13 664 21 28 255 29 323 1z"/>
<path d="M6940 7083 c1 -24 37 -66 49 -58 17 10 -18 75 -41 75 -4 0 -8 -8 -8
-17z"/>
<path d="M8065 7088 c-3 -7 -7 -265 -9 -573 -5 -556 -10 -690 -26 -710 -5 -6
-12 -31 -16 -55 -4 -25 -16 -65 -27 -89 -21 -49 -106 -139 -152 -163 -92 -47
-101 -49 -175 -46 l-75 3 -3 659 c-2 513 -5 662 -15 668 -14 9 -211 11 -244 2
l-23 -6 0 -803 c0 -723 2 -803 16 -809 9 -3 101 -6 205 -6 146 0 198 3 226 15
19 8 44 15 54 15 17 0 73 21 109 41 8 4 32 17 53 29 44 23 99 71 174 148 67
70 143 224 162 327 4 22 13 50 19 62 9 16 12 188 12 662 l0 641 -130 0 c-96 0
-132 -3 -135 -12z"/>
<path d="M7003 6994 c-3 -8 -1 -20 6 -27 8 -8 11 -4 11 16 0 30 -7 35 -17 11z"/>
<path d="M7087 6940 c-11 -16 -13 -26 -6 -29 16 -5 31 14 27 35 -3 17 -5 16
-21 -6z"/>
<path d="M7030 6940 c0 -5 5 -10 11 -10 5 0 7 5 4 10 -3 6 -8 10 -11 10 -2 0
-4 -4 -4 -10z"/>
<path d="M11345 6308 c-10 -33 -11 -33 -60 -28 -107 10 -352 3 -435 -12 -147
-27 -205 -65 -236 -154 -22 -62 -27 -345 -6 -365 6 -7 12 -22 12 -32 0 -24 91
-107 139 -126 27 -11 102 -16 304 -21 223 -4 269 -8 277 -20 5 -8 10 -45 10
-81 0 -54 -4 -69 -20 -84 -45 -41 -81 -45 -421 -45 -239 0 -328 -3 -337 -12
-14 -14 -16 -106 -2 -142 l10 -26 322 0 c178 1 352 5 388 10 36 5 85 12 110
16 25 3 64 15 87 26 43 20 153 131 153 154 0 6 7 25 15 40 13 24 15 98 15 466
0 240 -3 443 -6 452 -5 14 -29 16 -158 16 l-152 0 -9 -32z m-18 -365 c19 -21
23 -38 23 -90 0 -108 11 -103 -223 -103 -191 0 -205 1 -225 20 -32 30 -32 134
0 173 l22 27 190 0 190 0 23 -27z"/>
<path d="M11845 6277 c-3 -7 -4 -74 -3 -148 l3 -134 275 -6 c151 -3 285 -9
297 -13 41 -15 63 -66 63 -143 0 -46 -5 -74 -13 -81 -8 -7 -92 -12 -223 -14
-206 -3 -254 -10 -290 -43 -6 -5 -25 -22 -42 -37 -65 -57 -72 -86 -72 -297 0
-163 2 -190 16 -195 9 -3 212 -6 453 -6 327 0 440 3 449 12 9 9 12 110 12 395
0 410 3 380 -52 501 -42 92 -145 169 -268 201 -79 20 -598 28 -605 8z m632
-753 c3 -9 2 -28 -3 -43 l-9 -26 -165 0 -165 0 -3 28 c-7 57 -7 57 173 57 143
0 166 -2 172 -16z"/>
<path d="M12935 6266 c-14 -21 -16 -54 -12 -228 2 -111 8 -222 14 -244 14 -58
83 -129 158 -164 60 -27 62 -28 330 -33 170 -4 290 -11 324 -20 82 -20 117
-77 69 -111 -19 -14 -79 -16 -445 -16 l-423 0 0 -135 c0 -123 2 -135 19 -145
21 -11 1008 -15 1049 -4 22 6 22 8 22 185 0 210 -12 266 -73 335 -41 47 -111
84 -158 84 -15 0 -54 7 -86 15 -43 11 -116 15 -294 15 -198 0 -239 2 -249 15
-7 8 -18 15 -25 15 -20 0 -36 44 -33 91 l3 44 455 5 c250 3 456 7 458 8 1 1 2
69 2 151 0 127 -2 150 -16 155 -9 3 -254 6 -545 6 l-529 0 -15 -24z"/>
<path d="M8501 6257 c-19 -24 -12 -264 9 -277 8 -6 135 -10 291 -10 273 0 276
0 297 -22 28 -31 42 -71 42 -124 0 -85 3 -84 -193 -84 -130 0 -190 -4 -247
-17 -67 -16 -80 -23 -130 -73 -51 -51 -57 -62 -68 -122 -16 -87 -16 -340 0
-356 17 -17 889 -17 906 0 9 9 12 103 12 363 0 361 -7 456 -36 515 -30 61
-122 148 -193 182 l-66 32 -305 4 c-268 4 -307 2 -319 -11z m618 -726 c7 -5
14 -21 14 -36 0 -15 -7 -31 -14 -36 -8 -5 -83 -8 -168 -6 -130 2 -155 5 -164
18 -8 13 -6 24 6 43 l17 26 148 0 c81 0 153 -4 161 -9z"/>
<path d="M9585 6258 c-3 -7 -4 -256 -3 -553 l3 -540 140 0 140 0 3 297 2 296
166 166 166 166 133 0 c152 0 145 -5 145 95 0 53 -3 66 -19 75 -12 6 -110 10
-248 10 -198 0 -232 -2 -253 -17 -14 -9 -29 -23 -33 -30 -4 -7 -19 -13 -32
-13 -18 0 -24 6 -27 28 l-3 27 -138 3 c-104 2 -139 -1 -142 -10z"/>
<path d="M9250 4390 c-40 -40 -18 -70 50 -70 25 0 51 -5 58 -12 9 -9 12 -80
12 -259 0 -136 3 -254 6 -263 8 -20 57 -21 73 -3 7 9 12 102 13 273 l3 259 55
5 c54 5 55 6 58 39 2 20 -2 37 -10 42 -7 5 -77 9 -155 9 -130 0 -145 -2 -163
-20z"/>
<path d="M9683 4404 c-10 -4 -13 -69 -13 -273 l0 -267 34 -35 c54 -55 62 -59
126 -59 62 0 94 13 135 54 19 20 20 34 20 295 0 249 -2 275 -17 285 -14 8 -22
7 -35 -7 -16 -16 -18 -41 -18 -235 0 -119 -4 -228 -9 -241 -11 -32 -45 -60
-72 -61 -11 0 -34 15 -52 33 l-32 33 -2 239 -3 240 -25 2 c-14 1 -31 -1 -37
-3z"/>
<path d="M10105 4399 c-3 -8 -4 -151 -3 -319 l3 -305 101 -3 c91 -2 105 0 136
20 18 12 44 38 56 56 21 32 22 43 22 235 0 183 -2 205 -21 243 -29 61 -63 76
-186 82 -81 3 -104 1 -108 -9z m198 -107 l27 -28 0 -174 0 -174 -27 -28 c-21
-22 -36 -28 -69 -28 -29 0 -44 5 -48 16 -8 20 -8 392 0 422 5 18 13 22 48 22
33 0 48 -6 69 -28z"/>
<path d="M10512 4398 c-14 -14 -17 -594 -3 -616 4 -8 19 -12 32 -10 36 5 41
47 37 338 -2 208 -6 271 -17 283 -16 20 -32 22 -49 5z"/>
<path d="M10805 4405 c-5 -2 -23 -6 -38 -9 -16 -4 -42 -20 -58 -37 l-29 -30 0
-243 c0 -270 -4 -252 72 -299 39 -25 128 -22 172 4 71 42 76 60 76 297 0 197
-1 213 -21 247 -12 20 -33 42 -48 49 -27 14 -108 28 -126 21z m75 -107 l30
-22 0 -186 0 -186 -30 -22 c-35 -26 -63 -28 -90 -5 -19 16 -20 29 -20 211 0
189 1 194 23 213 29 24 51 24 87 -3z"/>
<path d="M8883 4381 c-49 -30 -63 -68 -63 -163 0 -73 3 -88 25 -121 15 -21 34
-37 45 -37 10 0 21 -4 24 -9 3 -5 31 -12 61 -16 65 -8 85 -29 85 -92 0 -63
-33 -83 -138 -83 -91 0 -108 -10 -97 -60 l7 -30 108 0 c83 0 110 3 120 15 7 8
19 15 26 15 8 0 23 15 34 33 16 26 20 50 20 124 0 90 0 92 -34 127 -28 30 -40
36 -75 36 -41 0 -99 22 -113 44 -4 6 -8 34 -8 63 0 73 27 91 141 95 l84 3 0
35 0 35 -110 3 c-95 2 -114 0 -142 -17z"/>
<path d="M4777 3958 c-19 -40 -42 -91 -52 -113 -35 -79 -100 -212 -153 -309
-58 -106 -58 -130 -4 -102 17 9 42 16 56 16 14 0 28 5 31 10 3 6 13 10 20 10
8 0 38 11 67 24 29 13 60 27 68 30 8 3 22 10 30 15 8 5 45 23 81 40 53 25 70
40 87 72 23 42 28 97 13 127 -5 9 -16 35 -25 56 -27 63 -144 195 -173 196 -6
0 -27 -33 -46 -72z"/>
</g>
</svg>
