<svg id="Camada_1" data-name="Camada 1" xmlns="http://www.w3.org/2000/svg" viewBox="0 0 3001.56 1260.35"><defs><style>.cls-1,.cls-2{fill:#072d2c;}.cls-2,.cls-3{stroke:#000;stroke-miterlimit:10;stroke-width:10px;}.cls-3{fill:#fff;}</style></defs><title>Logo2</title><path class="cls-1" d="M1378.46,696a4.48,4.48,0,0,0-.64,0c-14.13-.26-29.23-.38-46.14-.38-15.74,0-31.64.11-47,.21-15.74.1-32,.21-48.49.21-27.9,0-51.76-.32-75.05-1-6.17-.91-8-1.84-8.92-13.34-.5-40.37-.41-73.75-.31-106,.06-21,.13-42.8,0-65.93,0-14.87,0-29.92,0-45.06,0-42.54-.08-86.53.24-129.1.07-6.75-.55-14.17-5.67-17.89-2.67-2-6-2.27-8.59-2.27-1.08,0-2.15.05-3.18.1s-1.84.08-2.66.08a9.2,9.2,0,0,1-2.12-.17,3.58,3.58,0,0,1,0-.74c.75-7.64.34-17.52,0-27.08-.33-7.91-.67-16.09-.31-22.47.42-7.49,1.68-9.64,2.07-10.14h.19c7.11.24,14.54.36,22.7.36,13.6,0,27.33-.33,40.6-.66s26.72-.66,40.06-.66c33.17,0,58.67,2.16,82.64,7,27,8.38,44.75,25.44,54.14,52.16,8.8,25,9.43,55.3,8.81,84.28a1,1,0,0,0,0,.17c.7,58.21.53,115,.37,170-1.12,8.75-.61,26.93,0,47.93.49,17.38,1,37.08.64,52.82C1381.22,687.39,1379.44,693.86,1378.46,696Zm-114.23-61.72c5.09,0,10.39.41,15.51.8s10,.77,14.71.77c7,0,16-.72,22.68-6.31a5,5,0,0,0,1.77-3.29c2.8-25.11,2.15-50.72,1.53-75.49-.42-16.88-.86-34.34-.18-51.26v-.27c-.42-26.9-.14-49.65.11-69.72.67-54.24,1-84.12-14.79-100.14-9.93-10.06-25.24-14.16-52.82-14.16-8.38,0-18.38.38-30.59,1.17a4.94,4.94,0,0,0-1.52.34c-8,3.18-8.32,11.41-8.53,17.42v.23c.4,33.62.33,69.09.27,103.4q0,18.45,0,36.63c.85,46.92.16,79.26-.34,102.87-.75,35.38-1,47.3,5.38,53.83,3.82,3.9,9.1,4.44,14.25,4.44,2.44,0,5.14-.14,8.27-.29,4.11-.2,8.78-.43,14.28-.43h.64a4.49,4.49,0,0,0,.64,0A68.53,68.53,0,0,1,1264.23,634.28Z" transform="translate(-29.44 -7.31)"/><path d="M1135.71,257.77h0m99.42,1.24c32.7,0,57.83,2.11,81.39,6.84,13.44,4.19,24.15,10.46,32.72,19.14,7.8,7.9,13.67,17.65,18,29.82,8.53,24.28,9.14,54,8.52,82.51a1.93,1.93,0,0,0,0,.34c.69,58.07.53,114.76.37,169.59-1.12,9.26-.6,27.43,0,48.39.47,16.42,1,35,.7,50.19-.28,14.26-1.22,21.49-2,25.06-13.26-.21-27.4-.32-43.1-.32s-31.68.11-47.06.21c-15.73.1-32,.21-48.46.21-27.72,0-51.43-.31-74.57-1a9,9,0,0,1-3-.82c-.25-.39-.95-2-1.41-7.76-.49-40.26-.4-73.58-.3-105.79.06-21,.13-42.81,0-65.92q0-22.37,0-45.14c0-42.51-.08-86.47.24-129,.05-4.85.17-16.2-7.67-21.95-4-2.94-8.5-3.28-11.59-3.28-.94,0-1.83,0-2.7.07.31-7.05,0-15.18-.36-23.08-.28-6.87-.58-14-.41-19.73a51.77,51.77,0,0,1,.68-7.56c6.11.17,12.49.25,19.39.25,13.66,0,27.42-.34,40.72-.66,13.11-.32,26.67-.66,40-.66m-3.5,381.53c2.56,0,5.32-.14,8.51-.3,4.06-.19,8.66-.42,14-.42h.65a8.88,8.88,0,0,0,1.26-.08,64.19,64.19,0,0,1,8.14-.46c4.9,0,10.1.4,15.13.78s10.19.79,15.09.79c7.26,0,17.83-.78,25.88-7.46a10,10,0,0,0,3.54-6.59c2.84-25.44,2.19-51.23,1.56-76.16-.42-16.81-.86-34.19-.19-50.93,0-.19,0-.38,0-.56-.42-26.83-.14-49.54.11-69.58.68-55.59,1.06-86.21-16.23-103.72-11-11.11-27.31-15.64-56.38-15.64-8.48,0-18.6.38-30.92,1.18a9.59,9.59,0,0,0-3,.68c-11.09,4.39-11.48,15.78-11.68,21.9,0,.16,0,.31,0,.46.4,33.58.33,69,.27,103.32,0,12.3,0,24.54,0,36.64v.19c.85,46.74.16,79-.34,102.58-.79,37-1,49.41,6.8,57.43,5.13,5.24,11.89,5.95,17.83,5.95m3.5-391.53c-26.86,0-53.63,1.32-80.67,1.32-7.49,0-15-.1-22.53-.36l-.53,0c-12.28,0-4.31,42.6-6.54,64.39-.17,5.37,3.14,6.22,7.16,6.22,1.89,0,3.93-.18,5.84-.18,2.2,0,4.23.25,5.65,1.32,3.28,2.38,3.66,8.66,3.61,13.81-.44,57.61-.21,117.12-.21,174.21.27,58.31-.55,105.08.29,172.16.94,12.39,3.32,16.64,13.48,18.11,26.66.77,51.51,1,75.48,1,32.74,0,63.81-.42,95.52-.42,15.12,0,30.39.1,46,.38a3.48,3.48,0,0,0,1.65.45c14,0,3.45-109.8,6.7-133.49.17-57.31.31-113.07-.37-170.37,1.31-60.41-3.3-121.91-66.72-141.4-28.29-5.72-56.12-7.13-83.86-7.13Zm-3.5,381.53c-23.49,0-11.7-13.4-14.29-156.14,0-46.21.31-94.51-.23-140.09.25-7.38,1.05-11.23,5.37-12.94,11.42-.74,21.45-1.16,30.27-1.16,78.51,0,60.23,33.62,62.5,179.09-1.68,41.77,3.35,84.5-1.32,126.4-4.87,4-11.69,5.15-19.48,5.15-9.28,0-19.92-1.57-30.22-1.57a74.92,74.92,0,0,0-9.41.54h-.64c-9.81,0-17.12.72-22.55.72Z" transform="translate(-29.44 -7.31)"/><path class="cls-1" d="M1528.52,697.39a356.2,356.2,0,0,1-49.34-3.66c-.69-33.16-.48-68.59-.27-102.9.15-26.18.32-53.26.08-79.25.88-57.31.11-96.74-.46-125.54-.67-34.18-1-53,3-57.13.68-.69,1.93-1.4,6.08-1.4,2.5,0,5.63.25,9.24.55,5.38.43,12.08,1,20.17,1a183.51,183.51,0,0,0,18.66-1c3.47.38,4,.87,3.89,10.5,0,1.73,0,3.69,0,5.75.48,36.51.07,73.09-.33,108.48-.66,58.29-1.33,118.57,2.12,177.89a5,5,0,0,0,4.3,4.67,111.89,111.89,0,0,0,15.22,1.08c22.46,0,41.37-7.6,56.21-22.58,34.07-34.41,37.17-99,36.91-125.27,1.39-85.45.26-140-.48-176.14-.72-34.66-1.11-53.76,2.2-57.14.19-.2.7-.71,3.49-.71,1.68,0,3.77.18,6.18.38l2.11.18a51.83,51.83,0,0,0,9.23.74c4.44,0,8.9-.4,13.21-.79,4-.35,7.69-.69,11.08-.69,5.07,0,8.44.77,10.62,2.46-.07,38.41.61,73.31,1.26,107.08,1.6,82.22,2.86,147.15-8.59,198.7-12,54.25-37.75,89.61-83.34,114.63C1595.41,690.63,1564.3,697.39,1528.52,697.39Z" transform="translate(-29.44 -7.31)"/><path d="M1659.67,258.37h0m41.37,1.06a22.55,22.55,0,0,1,5.62.55c0,37.25.63,71.2,1.26,104.09,1.6,81.88,2.85,146.55-8.47,197.52-5.76,25.93-14.59,47.08-27,64.67-13.21,18.74-30.82,34-53.83,46.64-24.85,12.93-55.17,19.49-90.11,19.49a344.1,344.1,0,0,1-44.43-3c-.58-31.85-.38-65.68-.18-98.48.15-26.18.31-53.26.08-79.27.88-57.36.1-96.83-.46-125.65-.36-18.29-.61-31.5-.23-40.63.35-8.6,1.26-11.64,1.71-12.63a14.77,14.77,0,0,1,2.61-.17c2.3,0,5.33.24,8.84.53,5.47.44,12.27,1,20.57,1,5.85,0,11.6-.26,17.51-.82.09,1.49.07,3.61,0,5.31s0,3.75,0,5.88c.48,36.48.07,73-.33,108.35-.66,58.38-1.33,118.75,2.12,178.24a10,10,0,0,0,8.62,9.33,117,117,0,0,0,15.9,1.13c23.85,0,43.95-8.1,59.76-24.06C1654.76,583,1659.34,522,1659,488.62c1.39-85.52.26-140.14-.49-176.29-.37-18.23-.65-31.41-.4-40.49.2-7.18.72-10.62,1.12-12.23,1.46,0,3.44.17,5.74.37l1.89.15a57.52,57.52,0,0,0,9.87.78c4.67,0,9.24-.41,13.66-.81,3.84-.34,7.46-.67,10.63-.67m-215.83,72.86h0M1701,249.43c-7.42,0-16.06,1.48-24.29,1.48a47.33,47.33,0,0,1-8.58-.7c-3.55-.29-6.49-.6-8.94-.6-19.68,0-6.65,20.27-10.21,239,.56,56.24-14.1,142.87-88.12,142.87a106.36,106.36,0,0,1-14.53-1c-5.51-94.78-.49-188.8-1.78-286.2-.29-11.83,2-20-8.89-21.16a177.65,177.65,0,0,1-18.67,1c-13.42,0-22.84-1.52-29.41-1.52-23.1,0-11,18.85-13.63,189.05.56,61.57-1.1,126.94.28,186.51a371.1,371.1,0,0,0,54.25,4.32c32.47,0,65.41-5.33,94.83-20.68,120.11-65.9,92.7-196.43,93.32-426.91-3.55-4.24-9.12-5.37-15.63-5.37Z" transform="translate(-29.44 -7.31)"/><path class="cls-1" d="M2810.67,695.13c-8.42,0-25.62,0-28.22-2.82-.8-.86-.54-4.34-.26-8a110.28,110.28,0,0,0,.39-12.52,56.85,56.85,0,0,0-.36-16c-.89-6.94-.92-7.17,2.43-7.74,39.77-1,72.35-1.3,98.54-1.55,69.42-.67,92.81-.89,100.17-11.43,2.53-3.62,2.85-8,1-13.46-4.56-17.56-25-20.31-40-22.31-3.53-.48-6.86-.92-9.65-1.5l-.55-.08c-7.07-.65-15.14-1-25.39-1-5.65,0-11.52.09-17.19.18s-11.77.18-17.66.18c-39.65,0-69.78-4.74-87.92-27.85-12.33-16-11.53-41.21-10.75-65.6.22-6.92.43-13.46.34-19.76.8-5.45.32-11.6-.14-17.56-.67-8.67-1.37-17.61,2.33-21.33,12-.44,24.89-.64,40.36-.64,10.31,0,20.8.09,30.94.18s20.77.17,31.22.17c7.62,0,14.49,0,21-.14,11.29.22,22.56.33,33.51.33,20.52,0,36.59-.37,49.51-.67,8.46-.2,15.14-.35,20.76-.35,8.44,0,17.37.32,19.63,2.71,1.79,1.89,1.46,7.91,1,16.23a263.9,263.9,0,0,0,.29,40.15c-.08,3.2-.53,3.39-3,3.76-23.88.37-47,.56-68.79.56-38.24,0-65.26-.56-85-1-10.77-.23-19.27-.41-25.87-.41-22.13,0-27.76,2-28.22,16.62,0,1.21-.07,2.46-.16,3.83-1.32,7.29.06,13.47,4.11,18.37,9,10.95,29.21,12.35,45.77,12.35,6.5,0,13-.25,18.7-.47,4.61-.18,9-.35,12.46-.35a39.4,39.4,0,0,1,6.5.38,4.23,4.23,0,0,0,.79.08c5.26.15,10.67.2,16.41.24,31.12.25,66.39.54,87.16,18.32,20.27,18,19.49,52.07,18.74,85-.26,11.42-.51,22.22.12,32.32a6.66,6.66,0,0,1-.53,1.73,10,10,0,0,1-2.32.17c-.67,0-1.39,0-2.17,0-1,0-2,0-3.18,0s-2.08,0-3.06.07c-25.92-.34-51.35-.51-75.57-.51-41,0-72,.48-94.62.84-13.78.21-24.66.38-33.38.38Z" transform="translate(-29.44 -7.31)"/><path d="M3005,448.84c10.43,0,14.33.66,15.78,1.18.43,2.16.12,7.62-.15,12.48a271.44,271.44,0,0,0,.16,39.22c-23.13.35-45.55.53-66.67.53-38.19,0-65.18-.56-84.89-1-10.79-.23-19.32-.41-26-.41-12.62,0-20,.57-25.2,3.69-7.61,4.55-7.84,12.19-8,17.78,0,1.08-.07,2.2-.14,3.39-1.87,10.79,1.78,18,5.22,22.15,10.38,12.55,32,14.16,49.63,14.16,6.6,0,13.14-.25,18.9-.48,4.56-.17,8.87-.34,12.26-.34a33.41,33.41,0,0,1,5.57.29,9.31,9.31,0,0,0,1.58.17c5.31.15,10.75.2,16.51.24,30.23.24,64.48.52,83.88,17.06,18.53,16.58,17.79,49.39,17.06,81.12-.23,10.25-.45,20-.05,29.3-.91,0-1.93,0-3,0s-2.13,0-3.14.07c-25.88-.34-51.28-.51-75.49-.51-41,0-72,.48-94.7.84-13.75.21-24.62.38-33.3.38-12.41,0-20.43-.42-23.9-1.26,0-1.2.15-2.81.25-4.2a115.65,115.65,0,0,0,.43-12.63,62.89,62.89,0,0,0-.42-16.95c-.08-.67-.18-1.43-.26-2.15,38.76-1,70.62-1.26,96.32-1.5,73.27-.7,95.38-.92,104.22-13.57,3.43-4.91,4-10.89,1.66-17.76-5.48-20.65-28.73-23.76-44.16-25.83-3.43-.46-6.68-.89-9.3-1.43a10.07,10.07,0,0,0-1.1-.17c-7.22-.67-15.44-1-25.86-1-5.68,0-11.56.09-17.25.18s-11.74.18-17.59.18c-38.17,0-67.06-4.41-84-25.9-11.23-14.6-10.46-38.9-9.71-62.39.22-6.84.42-13.31.34-19.6.8-5.89.31-12.17-.16-18.26-.38-4.9-.77-10-.31-13.67a14,14,0,0,1,.48-2.37c11.19-.37,23.25-.55,37.55-.55,10.29,0,20.76.09,30.89.18s20.79.18,31.27.18c7.61,0,14.47-.05,21-.15,11.29.22,22.57.33,33.52.33,20.57,0,36.68-.38,49.62-.67,8.43-.2,15.09-.35,20.65-.35M2786.76,650.33h0M3005,438.84c-14.38,0-36.47,1-70.27,1-10.09,0-21.23-.09-33.5-.33-7,.11-14,.14-21,.14-20.84,0-41.47-.35-62.17-.35-14,0-28,.16-42.18.7-11.07,7.29-3.1,29.28-5.38,43.49.49,28.86-5.73,66.46,11.48,88.79,20.79,26.48,56.13,29.76,91.86,29.76,11.74,0,23.52-.36,34.84-.36,8.66,0,17.05.21,24.94.94,14.89,3.07,41.39,2.29,45.9,20.36,8.23,23.16-33.16,16-195.38,20-13.3,2.25-4.15,12.49-6.59,28.5.95,24.38-10.38,28.63,33.25,28.63,23.41,0,62.6-1.22,128-1.22,22.09,0,47.2.14,75.66.51,1.05,0,2-.07,3-.07,2,0,3.82.09,5.36.09,4.5,0,6.9-.75,7.86-6.61-2.58-39.66,8.94-95.07-20.62-121.38-26.11-22.36-72.27-18.79-106.69-19.77a43.59,43.59,0,0,0-7.43-.46c-7.95,0-19.47.82-31.16.82-24.15,0-49.05-3.52-44.91-25.1.88-13.31-2.51-16.07,23.41-16.07,18.33,0,51.33,1.38,110.86,1.38,19.94,0,42.86-.15,69.19-.56,5.35-.79,7.49-3,7.6-8.92-4.89-56.37,13.25-63.93-25.91-63.93Z" transform="translate(-29.44 -7.31)"/><path class="cls-1" d="M2249.91,695.06c-14.36,0-18.22-1.64-19.25-2.46-2-15.24-1.44-24.5,1.86-28.3,2-2.32,5.75-3.26,12.88-3.26,2.64,0,5.59.12,8.71.25,3.68.15,7.85.32,12.25.32,3.45,0,6.63-.11,9.74-.32,5.48-.37,11.42-.55,18.17-.55,9.88,0,20.05.39,29.88.77s18.91.73,27.76.73c26.46,0,54.3-3.16,60.22-26.55,2.24-7.25,4-17.33,0-24.46a15.08,15.08,0,0,0-9.87-7.27,4.73,4.73,0,0,0-1-.14c-4.11-.17-8.49-.24-13.39-.24-8.88,0-18.22.26-27.26.52-9.22.26-18.74.53-28,.53-22.4,0-47.77-1.35-66.13-11.31S2239.17,565.57,2239,539a4.71,4.71,0,0,0,0-.53c-3.86-34.56.75-58.61,14.09-73.52,16.61-18.56,45.73-21.07,72-21.07,10.77,0,22.17.49,33.2,1,11.23.48,22.83,1,34,1,3.55,0,6.82-.05,10-.14h.18c8.47,0,9.32-8.62,9.69-12.3a30.79,30.79,0,0,1,.43-3.22l.35.09a5.22,5.22,0,0,0,.88.15c3.42.3,7.14.44,11.37.44,5.45,0,11.1-.24,16.57-.47s11.11-.47,16.55-.47a102.19,102.19,0,0,1,20.13,1.66c1.93,18,1.43,38.12.94,57.65-.37,14.55-.74,29.59-.12,43.76,3.26,71.21,1,116.77-20.18,139-18.32,19.17-51.33,22.81-105.84,22.81-9.72,0-20.51-.11-36.08-.38-5.61-.28-11.46-.42-17.89-.42-10.26,0-20.25.36-29.07.67C2262.83,694.81,2255.87,695.06,2249.91,695.06Zm74.63-198c-8.17,0-15.24,4.35-19.88,12.25-8.19,13.94-8.17,37.26,0,52a5,5,0,0,0,2.59,2.24c5.11,2,11.06,2.85,18.72,2.85,4,0,8.14-.24,12.12-.47s7.82-.46,11.56-.46a64.23,64.23,0,0,1,7.34.38,5.65,5.65,0,0,0,.58,0h.31c1.89-.12,4-.18,6.4-.18,3.46,0,7,.12,10.84.24s7.87.25,11.81.25c8.12,0,14.35-.57,19.61-1.81a5,5,0,0,0,2.81-1.81c5-6.45,6.84-16.23,5.2-27.56-1.93-13.46-8.38-26.23-16-31.77a4.73,4.73,0,0,0-.56-.35c-11.46-6.17-22.77-7-31.35-7-5.06,0-10.18.3-15.6.63-5.82.34-11.84.7-18.23.7-2.22,0-4.31,0-6.39-.13C2325.79,497,2325.16,497,2324.54,497Z" transform="translate(-29.44 -7.31)"/><path d="M2417.49,431.19h0m40.84,3.65a111,111,0,0,1,15.51.94c1.46,16.7,1,35.24.55,53.25-.37,14.63-.75,29.76-.12,44.12,1.92,41.8,1.5,69.68-1.34,90.41-2.9,21.16-8.45,35.41-17.46,44.84-7.9,8.27-19.23,13.64-35.67,16.9-15.46,3.06-35.36,4.37-66.54,4.37-9.68,0-20.43-.11-35.92-.38-5.67-.28-11.58-.42-18.05-.42-10.36,0-20.4.36-29.26.68-7.33.26-14.26.51-20.12.51-8.4,0-12.6-.56-14.67-1-1.91-16.48.28-20.56,1.05-21.44.62-.7,2.69-1.54,9.11-1.54,2.53,0,5.43.12,8.5.24,3.73.15,8,.33,12.46.33,3.56,0,6.86-.11,10.08-.33,5.36-.36,11.2-.54,17.83-.54,9.79,0,19.91.39,29.69.77s19,.73,27.95.73c18.61,0,57.28,0,65-30.19,3.63-11.81,3.48-21.32-.45-28.28a20,20,0,0,0-13-9.67,10.47,10.47,0,0,0-2-.28c-4.18-.16-8.62-.24-13.6-.24-8.94,0-18.32.26-27.4.52s-18.67.52-27.82.52c-20.49,0-46.26-1.21-63.75-10.7-16.83-9.13-24.74-25-24.89-50a9.11,9.11,0,0,0-.06-1c-3.69-33.07.51-55.85,12.85-69.64,12.16-13.6,32.59-19.4,68.3-19.4,10.66,0,22,.49,33,1,11.28.48,22.94,1,34.2,1,3.56,0,6.85,0,10.05-.14h.14c8.16,0,13-5.06,14.45-15.05,2.57.14,5.3.21,8.28.21,5.55,0,11.25-.24,16.77-.47s11-.47,16.35-.47h0m-125.52,57.37c-2.12,0-4.11,0-6.1-.12-.72,0-1.45-.08-2.17-.08-10,0-18.61,5.23-24.19,14.72-9,15.29-9,40.85,0,57a10,10,0,0,0,5.18,4.48c5.7,2.17,12.21,3.18,20.5,3.18,4.17,0,8.36-.24,12.41-.48s7.68-.45,11.27-.45a58.51,58.51,0,0,1,6.76.35,11.11,11.11,0,0,0,1.16.07l.62,0c1.79-.11,3.78-.17,6.09-.17,3.38,0,6.93.12,10.68.24,3.91.12,7.95.25,12,.25a90.9,90.9,0,0,0,20.75-1.94,10,10,0,0,0,5.63-3.62c5.82-7.53,8-18.66,6.19-31.33-2.15-14.94-9.24-28.73-18.06-35.11a10,10,0,0,0-1.12-.7c-12.44-6.7-24.56-7.56-33.72-7.56-5.21,0-10.4.31-15.89.64-5.75.34-11.7.69-17.94.69m125.51-67.37c-11,0-22.37.94-33.11.94-3.74,0-7.4-.11-10.95-.42a9,9,0,0,0-2.33-.35c-7.92,0-1.56,15.61-9.45,15.61h-.2c-3.29.11-6.62.15-10,.15-22.05,0-45.38-1.93-67.19-1.93-55.32,0-100.88,12.41-91.09,100.15.37,62.43,47.08,70.64,98.64,70.64,18.42,0,37.46-1,55.22-1,4.49,0,8.91.06,13.21.23,11,2.7,9.16,16.13,6.24,25.53-4.77,19.18-27.19,22.9-55.41,22.9-17.89,0-38.11-1.5-57.64-1.5-6.27,0-12.48.16-18.51.57-3.26.22-6.4.3-9.4.3-8,0-15-.57-21-.57-16.58,0-24.31,4.47-19.53,38.49,2.29,4.41,11.18,5.53,24,5.53,13.23,0,30.65-1.19,49.38-1.19,5.8,0,11.74.12,17.71.41,13,.23,25.07.39,36.26.39,117.91,0,137.83-17.85,131-167-1.5-34.3,2.88-72.85-1.26-105.26-7.74-2-16.11-2.59-24.68-2.59Zm-125.51,77.37c12.48,0,23.52-1.33,33.83-1.33,10.12,0,19.54,1.28,29,6.36,11.86,8.59,20.24,38.74,9.82,52.22a82.47,82.47,0,0,1-18.47,1.68c-7.62,0-15.46-.49-22.65-.49-2.31,0-4.56.05-6.71.19a68.47,68.47,0,0,0-7.92-.42c-7.77,0-15.92.93-23.68.93-6,0-11.77-.55-16.94-2.52-10.56-19-6.19-56.82,15.47-56.82.52,0,1,0,1.58.07,2.28.09,4.5.13,6.69.13Z" transform="translate(-29.44 -7.31)"/><path class="cls-1" d="M2548.91,695.12c-7.58,0-17.83-.3-23.91-2.65-.19-4.14-.4-8.28-.6-12.32-2.73-53.75-5.09-100.18,48.08-109.67a379.53,379.53,0,0,1,39.34-2.08c10.79,0,19.68.48,26.83.87,5,.27,9.25.5,12.86.5,6.29,0,12.67-.63,16.66-5.18,5.62-6.41,4.41-17.77,1.38-40.82a4,4,0,0,0-.17-.78c-2.21-7.38-6.35-11.86-13.85-15a6.18,6.18,0,0,0-.83-.27c-9.88-2.19-23-3.21-41.22-3.21-11.33,0-23.08.38-34.43.76-10.34.34-20.11.66-28.68.66-19.54,0-24.69-1.91-26-2.82.37-6.4.06-14.59-.27-23.24-.31-8.35-.64-17-.31-24,.36-7.88,1.44-10.65,1.95-11.54h0c6.17.28,12.64.41,19.76.41,12.26,0,24.55-.4,36.43-.79,11.71-.38,22.78-.75,33.69-.75,34.27,0,69.1,3.34,91.67,27.55a3,3,0,0,0,.25.25c26.7,24.89,25.52,67.14,24.57,101.1-.29,18.18-.15,35.45,0,52.16.19,21.88.38,44.5-.42,68.92-.43.84-1.43,1.61-5.3,1.61-1.73,0-3.68-.16-5.75-.32-2.35-.19-4.79-.38-7.28-.38-1.37,0-2.61.06-3.8.17-8.6-.08-17.47-.12-27.88-.12-8.71,0-17.36,0-26.09.06-8.91,0-17.91,0-27.16,0h0c-7.09-.38-14.46-.57-22.53-.57-11.8,0-23.22.42-33.3.78C2564,694.82,2556,695.12,2548.91,695.12Zm79.31-36.35a5.07,5.07,0,0,0,.68,0,5.64,5.64,0,0,0,.93-.08c11.29-1.19,31.54-8.34,39.37-22.88,4.2-7.8,4-16.48-.62-25.1a5,5,0,0,0-4-2.63c-6-.46-12.44-.69-19.83-.69-7.75,0-15.63.25-23.25.49-7.47.23-15.19.47-22.62.47H2597c-2.45,0-5.86,1.24-8.2,7.15-3.65,9.16-5.19,32.4,1.56,38.77a5.11,5.11,0,0,0,2.46,1.27c9.66,1.92,20.26,2.44,31.47,3Z" transform="translate(-29.44 -7.31)"/><path d="M2530.11,446.82h0m85.51,1.44c33.14,0,66.75,3.15,88,26,.16.17.33.34.5.5,10.78,10,17.6,24,20.85,42.64,2.91,16.73,2.69,34.65,2.13,54.66v.12c-.29,18.18-.15,35.49,0,52.22.18,20.86.36,42.39-.32,65.48h-.4c-1.53,0-3.39-.15-5.35-.31-2.34-.18-5-.39-7.68-.39-1.43,0-2.75.05-4,.17-8.55-.08-17.38-.12-27.72-.12-8.72,0-17.57,0-26.12.06-8.74,0-17.78,0-27,0-7.14-.38-14.56-.57-22.66-.57-11.89,0-23.36.42-33.48.78-8.5.31-16.53.59-23.48.59-8.47,0-14.85-.47-19.08-1.4-.14-3-.29-5.92-.44-8.81-1.35-26.5-2.62-51.53,3.11-70.55,5.85-19.43,18.4-29.9,40.68-33.92a377,377,0,0,1,38.64-2c10.65,0,19.47.48,26.56.86,5,.27,9.38.51,13.13.51,7.47,0,15.11-.83,20.42-6.88,7.07-8.06,5.9-19.55,2.58-44.77a9.35,9.35,0,0,0-.34-1.57c-2.65-8.85-7.81-14.45-16.71-18.16a11.28,11.28,0,0,0-1.68-.53c-10.24-2.27-23.68-3.33-42.3-3.33-11.42,0-23.2.38-34.6.76-10.29.34-20,.66-28.51.66-12,0-17.95-.7-20.89-1.32.13-5.9-.13-12.76-.4-19.94-.28-7.44-.57-15.15-.39-21.55a60.75,60.75,0,0,1,.71-8.6c5.07.18,10.38.26,16.11.26,12.34,0,24.66-.4,36.58-.79,11.68-.38,22.71-.75,33.53-.75m-16.76,155.13H2597c-3.27,0-9.29,1.34-12.85,10.3-3.49,8.79-6.84,35.18,2.78,44.26a10,10,0,0,0,4.91,2.53c10,2,21.31,2.55,32.21,3.09l3.87.2c.32,0,.64,0,1,0a9.9,9.9,0,0,0,1.45-.1c12.33-1.3,34.51-9.24,43.25-25.48,3.51-6.52,6.25-17-.61-29.82a10,10,0,0,0-8-5.26c-6.09-.48-12.7-.71-20.22-.71-7.83,0-15.75.25-23.41.49-7.42.23-15.1.47-22.46.47m40,50.4h0m-23.28-215.53c-22.36,0-46.17,1.54-70.11,1.54-6.51,0-13-.11-19.55-.4a4.37,4.37,0,0,0-.79-.07c-11,0-4.45,43.94-5.86,64.24-.18,5.91,12.69,7.38,31.06,7.38,18.1,0,41.55-1.42,63.11-1.42,15.14,0,29.36.7,40.13,3.09,5.82,2.43,9.11,5.55,11,11.8,4.56,34.66,4.42,40.35-13.08,40.35-8.57,0-21.31-1.37-39.69-1.37a388.47,388.47,0,0,0-40,2.12c-63.08,11.14-54.12,70.49-51.65,130.13,5.74,3.51,15.78,4.46,28.78,4.46,15.55,0,35.32-1.37,57-1.37,7.28,0,14.78.16,22.39.57h.08c18.35,0,35.68-.11,53.28-.11,9.25,0,18.58,0,28.17.13a32.27,32.27,0,0,1,3.56-.18c4.46,0,9.06.7,13,.7,4.82,0,8.71-1,10.27-5.6,1.46-43.45-.21-79.77.45-122,1-37.1,1.63-79-26.15-104.9-22.95-24.61-57-29.14-95.33-29.14Zm-16.76,175.13c15.08,0,30.58-1,45.87-1,6.53,0,13,.18,19.44.68,13,24.3-18.88,39.17-35.27,40.68v0h0c-12.37-.64-24.55-1-35.09-3.13-5.67-5.35-3.07-37.28,3.21-37.28h1.84Z" transform="translate(-29.44 -7.31)"/><path class="cls-1" d="M1945.78,697.06c-4.55,0-10.3-.35-17-.75-10.64-.64-23.88-1.43-40.75-1.43-10.17,0-20.24.28-30.75.87-6.66-.35-13.74-.52-21.65-.52-11.42,0-22.87.36-33,.69-8.79.28-17.08.54-24.26.54-15.27,0-21-1.37-23.11-2.42-.14-6.14-.47-12.51-.82-19.21-1.88-36.11-4-77.05,24.08-94.16,15.74-8.82,33.38-10,48.56-10,6.56,0,13.34.26,19.9.52s13.42.52,20.08.52a143.31,143.31,0,0,0,26.77-2.12,5,5,0,0,0,2.82-1.58c7.23-8.12,6.85-28.6,2-42.64-3.38-9.67-8.56-15.38-15-16.49l-.16,0c-14.25-2-29.64-3-48.41-3-10.83,0-21.75.3-32.32.6s-21.21.59-31.73.59q-3.11,0-6.21,0h-.21l-1.33,0c-4,0-6.69-.63-7.79-1.81-1.83-2-1.43-7.69-1-14.32l.15-2.26a177.14,177.14,0,0,0,.06-20.72,180,180,0,0,1,0-20.37c2.49-1.48,7.66-2.89,18.26-2.89,6.37,0,13.24.47,19.88.93,6,.41,11.62.8,16.36.8a41.51,41.51,0,0,0,8.53-.69c5.22,0,10.59-.1,15.79-.18,5.55-.09,11.29-.18,16.92-.18,30.48,0,64.85,2.14,87.06,27.64.1.11.2.22.31.32,25.28,24.25,24.6,61.79,23.94,98.09-.11,6-.22,12.21-.2,18.14-.28,24.53.13,43.67.47,59,.57,26.51.89,41.11-3.55,45.64C1956.66,696.22,1952.83,697.06,1945.78,697.06Zm-88.14-37.28h.36a5.32,5.32,0,0,0,.81-.06c11.88-1.34,32.08-8.28,39.83-22.14,4.23-7.56,4.25-16.2.07-25a5,5,0,0,0-3.83-2.8,174.18,174.18,0,0,0-23.88-1.29c-4.12,0-8.32.06-12.37.13s-7.94.12-11.77.12h-2.18l-.74,0c-10.53,0-21.37,10.8-26.22,21s-4.36,20.34,1.52,27.61a5,5,0,0,0,3.5,1.84c6.77.53,14.24.54,22.15.54C1849.09,659.69,1853.44,659.69,1857.64,659.78Z" transform="translate(-29.44 -7.31)"/><path d="M1773.08,449.69c6.2,0,13,.46,19.54.92,6.06.41,11.79.81,16.7.81a48.07,48.07,0,0,0,9-.7c5.1,0,10.32-.09,15.37-.17,5.53-.09,11.25-.18,16.85-.18,36.44,0,64.55,4.41,83.28,25.92.2.23.4.44.62.65,23.71,22.74,23,59.17,22.4,94.39-.11,6-.22,12.21-.2,18.18-.28,24.65.13,43.81.47,59.2.32,14.55.54,25.06,0,32.45s-1.76,9.22-2.12,9.59-1.67,1.31-9.24,1.31c-4.4,0-10.08-.34-16.65-.74-10.71-.64-24-1.44-41.05-1.44-10,0-20.38.29-30.76.86-6.66-.34-13.75-.51-21.64-.51-11.5,0-23,.37-33.12.69-8.75.28-17,.54-24.1.54-10.07,0-15.41-.59-18.21-1.16-.18-5.07-.45-10.29-.73-15.72-1-18.51-2-37.66.9-54.23,3-17.29,9.56-28.53,20.72-35.36,14.71-8.22,31.52-9.33,46-9.33,6.47,0,13.2.26,19.7.51,6.65.26,13.52.53,20.28.53a148.81,148.81,0,0,0,27.69-2.2,10,10,0,0,0,5.63-3.18c9.58-10.76,7.42-34.77,3-47.61-5.06-14.51-13.05-18.76-18.87-19.77l-.3-.05a346.56,346.56,0,0,0-49.12-3c-10.89,0-21.86.31-32.46.6-10.39.29-21.13.59-31.59.59-2.1,0-4.17,0-6.15,0h-.43l-1.17,0a16.55,16.55,0,0,1-4-.37c-.38-2,0-6.82.2-10.42,0-.72.11-1.46.16-2.21a182.81,182.81,0,0,0,.07-21.3c-.21-5.64-.41-11-.16-16.77,2.25-.64,6.32-1.3,13.46-1.3m73.79,154.07h-2l-.88,0c-12.71,0-25.08,12-30.73,23.81-5.77,12.08-5,24.07,2.14,32.9a10,10,0,0,0,7,3.69c7,.54,14.87.55,22.52.55,4.19,0,8.51,0,12.66.1h.47a10.58,10.58,0,0,0,1.39-.09c11.21-1.28,34.28-8,43.62-24.67,3.52-6.3,6.42-16.54.21-29.58a10,10,0,0,0-7.66-5.61,179.32,179.32,0,0,0-24.56-1.33c-4.16,0-8.37.06-12.44.13s-7.91.12-11.69.12m21.13,51h0m-94.92-215.1c-10,0-18.86,1.14-23.07,5.3-1.48,15.93.86,28.54-.28,43.35-1,14.86-2.46,23.72,13.6,23.72l1.48,0q3.14,0,6.27,0c21.25,0,42.6-1.19,64.05-1.19a338.94,338.94,0,0,1,47.71,2.91c14,2.44,18.62,41.39,10.16,50.88a140.85,140.85,0,0,1-25.85,2c-13.16,0-26.69-1-40-1-17.9,0-35.4,1.88-51.08,10.7-36.77,22.3-26.35,79-25.69,120.06,3.25,4,13.65,5,28.06,5,15.68,0,36.1-1.23,57.22-1.23,7.19,0,14.46.14,21.65.52,11.37-.63,21.58-.87,30.75-.87,27.67,0,45.83,2.18,57.7,2.18,30,0,19.75-14,20.89-112.52-.15-40.94,6.08-89.73-25.28-119.82-22.74-26.11-56.63-29.35-90.83-29.35-11.18,0-22.41.35-33.28.36a35.06,35.06,0,0,1-8,.69c-9.72,0-23.9-1.73-36.24-1.73Zm73.79,174.07c7.8,0,16-.25,24.13-.25a173.76,173.76,0,0,1,23.19,1.24c12,25.17-19.59,38.27-36.19,40h0c-11.92-.27-24.55.17-34.87-.63-12.1-15,7.9-40.43,20.81-40.43l.58,0Z" transform="translate(-29.44 -7.31)"/><path class="cls-1" d="M2013.81,696.34c-7.6,0-8.35-1.65-8.51-2.71-.1-35.83,0-72.22,0-107.41.07-43.38.13-88.23-.09-132.36a6,6,0,0,0-.07-.84c-.52-2.91-.36-5.11.43-6,.59-.71,2.24-1.55,6.74-1.55,2.68,0,5.65.28,8.79.58s6.56.63,9.67.63a33.53,33.53,0,0,0,4.2-.24c.94.06,1.92.09,3,.09h0c3.35,0,6.8-.3,10.15-.58,3.18-.28,6.19-.54,8.94-.54,4.61,0,7.39.74,8.75,2.32,1.61,1.87,2,5.77,1.22,11.27a5,5,0,0,0,3.31,5.46,4.89,4.89,0,0,0,1.63.27,5,5,0,0,0,4.35-2.52c7.89-13.85,18.55-16.64,33.2-16.64,2.88,0,5.76.1,8.81.2s6.19.22,9.31.22l1.64,0c3.94.13,8.12.19,12.77.19,6.14,0,12.35-.11,18.35-.21s12.17-.21,18.26-.21c9.73,0,17.8.28,25.3.86.87,1.85.87,7.61.86,11.51,0,1.75,0,3.55,0,5.35,0,6.07-.26,12-1.86,14.63-.68,1.1-1.9,2.32-7.8,2.91-6.46-.5-12.16-.74-17.43-.74-34.37,0-45,10.89-61,27.39-3.66,3.75-7.8,8-12.59,12.48-43.57,33.7-41.82,57.95-39.41,91.48.69,9.52,1.47,20.3,1.19,32.28a332,332,0,0,0,.25,35.56c.38,7.44.7,13.86-.62,15.26-.59.62-2.69,1.36-9.32,1.36-3.49,0-7.92-.18-12.56-.39a59.4,59.4,0,0,0-7.4-.41c-4.17,0-8.36.3-12.42.6C2020.2,696.09,2016.8,696.34,2013.81,696.34Z" transform="translate(-29.44 -7.31)"/><path d="M2009.88,449.33h0m47.15,1c3.38,0,4.63.47,5,.63.17.43.78,2.34.05,7.22a10,10,0,0,0,18.58,6.43c6.76-11.87,15.36-14.12,28.86-14.12,2.79,0,5.63.1,8.64.2s6.27.21,9.48.21h1.59c4,.12,8.16.18,12.82.18,6.18,0,12.41-.11,18.44-.21s12.12-.21,18.17-.21c7.94,0,14.75.19,21,.58.13,2.07.12,4.75.12,6.79,0,1.74,0,3.55,0,5.4,0,8-.59,10.78-1,11.73a14.85,14.85,0,0,1-3.74.74c-6.39-.49-12.07-.72-17.35-.73-36.48,0-48.29,12.13-64.63,28.91-3.75,3.85-7.63,7.83-12.25,12.16-45.5,35.27-43.58,61.93-41.15,95.65.71,9.85,1.44,20,1.17,31.75a334,334,0,0,0,.26,36c.2,4.1.44,8.64.27,11.12a42.59,42.59,0,0,1-5.22.24c-3.34,0-7.64-.18-12.14-.38a64.76,64.76,0,0,0-7.82-.42c-4.35,0-8.64.31-12.79.62-3.51.26-6.83.5-9.63.5a28.24,28.24,0,0,1-3.52-.18c-.09-35,0-70.54,0-104.91.07-43.4.13-88.27-.09-132.41a9.57,9.57,0,0,0-.15-1.69,12.53,12.53,0,0,1-.2-1.6,20,20,0,0,1,2.45-.13c2.44,0,5.29.27,8.32.56,3.34.32,6.79.65,10.14.65a41.53,41.53,0,0,0,4.34-.22c.91,0,1.84.07,2.83.07,3.56,0,7.13-.31,10.57-.6,3.08-.27,6-.52,8.52-.52m0-10c-6,0-12.88,1.12-19.09,1.12-1.07,0-2.12,0-3.14-.11a28.54,28.54,0,0,1-4,.26c-5.76,0-12.65-1.21-18.46-1.21-8.07,0-14.07,2.33-12.1,13.47.4,80-.13,159.94.09,240.06.67,6,6.12,7.39,13.51,7.39,6.59,0,14.74-1.12,22.42-1.12a54.73,54.73,0,0,1,7,.39c5.21.24,9.48.41,13,.41,23.39,0,12.29-7.83,14.68-57,1.26-53.23-17.6-78.39,36.47-120.13,25.46-23.74,30.35-38.69,70.4-38.69,5.19,0,11,.26,17.47.77,12.6-1.17,14.58-5.44,14.62-22.61-.23-10.14.91-20.4-4.43-21.71-9-.74-17.92-1-26.77-1-12.26,0-24.41.42-36.61.42-4.23,0-8.48-.05-12.73-.19h-1.68c-6.05,0-12.17-.41-18.12-.41-14.47,0-28,2.44-37.55,19.16,2.42-16.26-5-19.32-14.91-19.32Z" transform="translate(-29.44 -7.31)"/><path class="cls-1" d="M2428.76,1060.41c-13.32,0-29.33-3.06-48.94-9.36-19.19-11.55-18.64-51.84-18.2-84.27.12-9.13.24-17.75,0-25.46-1.7-45.83-1.68-79.56,14.3-96.14,8-8.35,20.37-12.4,37.7-12.4,10.81,0,23.36,1.52,38.35,4.67,28.93,10.1,27.8,45.42,26.71,79.58-.33,10.6-.65,20.6-.11,29.92,4.16,53.94-.46,85-15,100.64C2455.55,1056.22,2444.17,1060.41,2428.76,1060.41Zm-39.23-150.32c1.06,13.62.39,27.27-.27,40.46-1.14,22.89-2.32,46.56,5.79,70a5,5,0,0,0,2,2.54c10.55,7,19.41,10.34,27.08,10.35h0a20.85,20.85,0,0,0,15.54-6.49c13-13.43,12-44.75,11.26-67.62-.14-4.24-.26-8.24-.27-11.49,0-.12,0-.24,0-.36a209.62,209.62,0,0,1,.13-23.31c.66-16.15,1.34-32.86-3.78-48.73a4.86,4.86,0,0,0-1-1.72c-9.9-11.55-19.73-14-26.24-14-8.39,0-16.24,3.95-22.09,11.14C2389.62,880.73,2386.58,895.38,2389.53,910.09Z" transform="translate(-29.44 -7.31)"/><path d="M2413.57,837.78c10.24,0,22.68,1.51,37,4.49,11.09,4,17.53,12,20.84,25.89s2.77,31.67,2.23,48.71c-.35,10.71-.67,20.83-.11,30.37,0,.06,0,.12,0,.19,2,26.07,1.94,46.35-.24,62-2.24,16.05-6.63,27.42-13.44,34.77-7,7.55-17.16,11.22-31.1,11.22-12.48,0-28.23-3-46.83-8.93-6.63-4.29-11-13.62-13.36-28.49-2.44-15.44-2.18-34.41-2-51.14.12-9.19.24-17.88,0-25.72-1.66-44.58-1.71-77.32,12.9-92.48,7.05-7.32,18.2-10.87,34.1-10.87h0m-29,73c1,13.21.35,26.59-.3,39.54-1.16,23.36-2.37,47.52,6.06,71.83a10,10,0,0,0,3.94,5.07c11.4,7.52,21.16,11.18,29.84,11.18a26,26,0,0,0,19.13-8c14.48-15,13.43-47.5,12.67-71.26-.14-4.2-.26-8.17-.27-11.34q0-.36,0-.72c-.51-6.86-.19-14.57.14-22.73.65-15.82,1.39-33.75-4-50.48a10,10,0,0,0-1.92-3.44c-11.15-13-22.49-15.71-30-15.71-9.92,0-19.14,4.61-26,13-8.94,11-12.37,27-9.24,43.09m29-83c-58.49,0-59.59,44-57,113.72,1.36,37-6.71,98.21,21.18,114.14,20.35,6.57,37.18,9.77,51,9.77,50.33,0,60.65-42.4,54.75-118.75-2.35-40.25,12-99.61-30.25-114-15.53-3.27-28.63-4.84-39.69-4.84Zm10.53,200.61c-6.25,0-14.2-2.84-24.33-9.52-12.39-35.74-2.24-71.61-5.28-109.48-5.07-24.6,8.36-44.69,25.28-44.69,7.24,0,15.11,3.67,22.45,12.22,7.45,23.13,1.84,49.65,3.41,70.88,0,23.82,6.39,80.59-21.53,80.59Z" transform="translate(-29.44 -7.31)"/><path class="cls-1" d="M2174.51,1061.12c-11.53,0-19.58-1.56-24.55-4.78-8.93-13.78-6.66-38.77-4.46-62.94,1.53-16.92,3.12-34.41,1-48.95,1.35-15.05.57-33.62-.19-51.59-.7-16.55-1.36-32.18-.35-43.91,1.24-14.32,4.45-16.19,5.54-16.4,13.13-.85,24.45-1.27,34.59-1.27,33.83,0,53.54,4.67,63.89,15.15,12.72,12.87,12.45,35.53,12.05,69.81-.14,11.53-.29,24.59.07,38.8-.3,7.87-.13,16.28,0,24.42.39,19,.78,38.65-4.59,53.45-5.74,15.83-17.48,24.08-36.92,25.95q-1.3,0-2.67,0c-6.25,0-13.19.53-20.54,1.1C2189.78,1060.51,2181.87,1061.12,2174.51,1061.12ZM2202,859.56c-7.55,0-16.22,2.13-25.75,6.33a5,5,0,0,0-2.94,3.89c-1.78,12.85-1.31,27.59-.81,43.19.35,10.74.71,21.85.32,32.72a3.51,3.51,0,0,0,0,.56c.8,10.35.34,21.54-.1,32.38-.89,21.68-1.65,40.41,7.39,49.82,3.6,3.76,8.42,5.66,14.31,5.66h0c8.19,0,18.82-3.72,32.5-11.37a5,5,0,0,0,2-2.13c9.4-18.88,8.12-40.55,6.88-61.51-.73-12.39-1.49-25.21-.07-37.43,2.59-23.26-1.1-41.78-10.4-52.18C2219.47,862.9,2211.6,859.56,2202,859.56Z" transform="translate(-29.44 -7.31)"/><path d="M2186.12,836.28c31.94,0,51.1,4.34,60.31,13.66,11.26,11.39,11,33.21,10.61,66.24-.14,11.53-.29,24.58.06,38.82-.29,8-.12,16.4,0,24.56.38,18.54.76,37.72-4.29,51.65-3.41,9.38-10.17,20.41-32.4,22.65-.8,0-1.64,0-2.49,0-6.44,0-13.48.54-20.92,1.11s-15.36,1.18-22.53,1.18c-9.7,0-16.72-1.16-20.93-3.45-7.31-12.57-5.17-36.06-3.11-58.82,1.55-17,3.14-34.54,1.07-49.53,1.31-15.28.53-33.77-.23-51.67-.59-14-1.15-27.23-.69-38,.49-11.39,2-15.73,2.76-17.23,12.36-.78,23.08-1.16,32.73-1.16h0m8.31,202.83c9.19,0,20.29-3.81,34.94-12a10.12,10.12,0,0,0,4.07-4.28c10-20.07,8.67-42.41,7.39-64-.72-12.18-1.46-24.78-.09-36.61,1.94-17.45,1.5-41.34-11.64-56-6.79-7.59-16.17-11.6-27.11-11.6-8.25,0-17.59,2.27-27.77,6.76a10,10,0,0,0-5.87,7.78c-1.84,13.26-1.36,28.21-.85,44,.34,10.66.69,21.68.31,32.38a10.7,10.7,0,0,0,0,1.13c.78,10.05.33,21.1-.11,31.78-.93,22.83-1.73,42.55,8.78,53.5,3.15,3.28,8.82,7.19,17.93,7.19M2153.8,836.77h0m32.3-10.49c-10.34,0-22,.44-35.11,1.3-19.14,2.36-5.55,75.06-9.52,117,5.43,35.34-12.64,90.23,4.88,115.33,6.7,4.84,16.91,6.2,28.16,6.2,14.57,0,30.87-2.29,43.45-2.29,1,0,1.91,0,2.83,0,58.15-5.38,44.59-64.42,46.32-108.8-2.32-90.16,16.3-128.79-81-128.79Zm8.33,202.83c-26.39,0-13.78-46.41-16.63-83.25,1-26.64-2.49-54.19.45-75.39,9.26-4.08,17.12-5.91,23.74-5.91,25.05,0,32.18,26.29,28.81,56.53-3.87,33.49,7.84,68.85-6.32,97.29-13.41,7.5-23.09,10.73-30.05,10.73Z" transform="translate(-29.44 -7.31)"/><path class="cls-1" d="M2042.08,1060.26c-16.67,0-28.67-4-36.71-12.27-15.93-16.36-15.07-48.14-14.17-81.78.35-13,.72-26.5.08-39.44.76-7.66.32-18.55-.2-31.12-.95-23.1-2.24-54.72,6-63.3a5.51,5.51,0,0,1,4.27-1.85c2.79,0,7.85,1.5,16.39,8.4,2.45,28.67,1.31,59.61.3,87-1.57,42.37-2.92,79,8.61,97.7a5,5,0,0,0,1.78,1.73c8.9,5.09,16.54,7.56,23.35,7.56a22.55,22.55,0,0,0,17-7.24c16.65-17.6,14-65.15,11.47-111.13-1.88-33.76-4-72,4.52-81a4.51,4.51,0,0,1,3.56-1.57,8.86,8.86,0,0,1,2,.26,5,5,0,0,0,1.15.13l.51,0c1.56-.15,3-.24,4.34-.24,4.25,0,7.21.83,8.79,2.47,3,3.11,2.75,10.78,2.48,18.89-.11,3.31-.23,6.73-.16,10.29-1.73,23.72-.77,49.33.16,74.09,2.08,55.16,4,107.27-25.6,116.94C2066.66,1058.39,2053.24,1060.26,2042.08,1060.26Z" transform="translate(-29.44 -7.31)"/><path d="M2001.34,835.5c.69,0,4.16.33,11.59,6,2.18,27.77,1.08,57.68.1,84.22-1.6,43.18-3,80.47,9.35,100.5a10,10,0,0,0,3.55,3.45c9.69,5.53,18.14,8.22,25.84,8.22a27.68,27.68,0,0,0,20.6-8.81c18.13-19.16,15.56-65.64,12.83-114.84-1.11-20-2.16-38.93-1.52-53.87.79-18.59,4-22.76,4.68-23.45a5.62,5.62,0,0,1,.79.12,9.82,9.82,0,0,0,2.29.27c.34,0,.67,0,1,0,1.39-.14,2.68-.22,3.84-.22,3.51,0,4.94.68,5.19.94,1.54,1.59,1.26,9.82,1.08,15.26-.11,3.3-.22,6.71-.17,10.31-1.72,23.93-.76,49.6.18,74.42,1.08,28.73,2.1,55.86-1.16,76.81-4.11,26.45-13.77,32.78-20.81,35.13-14.84,3.56-27.8,5.37-38.52,5.37-15.25,0-26.08-3.52-33.12-10.76-14.46-14.85-13.64-45.6-12.76-78.16.35-13,.71-26.44.09-39.45.75-8,.3-18.89-.21-31.45s-1.1-26.66-.37-38.38c1-15.95,4-20.3,5-21.25.29-.31.32-.31.66-.31m87.15,1.29h0m-87.15-11.29c-25.22,0-12.3,75.08-15.07,101.14,3.18,62.85-17.79,138.62,55.81,138.62,11.35,0,25-1.81,41.24-5.74,47.66-15.24,23.29-117,29.08-195.71-.37-19.45,4.84-36.79-16.12-36.79a47.51,47.51,0,0,0-4.84.27,13.9,13.9,0,0,0-3.15-.39c-39.18,0,18.31,201-36.52,201-5.68,0-12.56-2.15-20.87-6.9-18.19-29.58-1.75-112.44-8.37-184.6-9-7.62-15.94-10.87-21.19-10.87Z" transform="translate(-29.44 -7.31)"/><path class="cls-1" d="M1738.5,1060.93a83.86,83.86,0,0,1-16.44-1.72,2.38,2.38,0,0,0-.37-.06,60.07,60.07,0,0,0-7.5-.41c-3.54,0-7.23.21-10.79.41s-7.06.4-10.39.4c-6,0-10.22-.67-13.32-2.11-2.18-1.5-4.1-9.47-2.24-17.46,1-4.53,2.93-7,4.24-7.08.19,0,.38,0,.58-.08a64,64,0,0,1,11.57-.85c4.29,0,8.82.22,13.61.44,4.94.23,10,.48,15,.48,12.3,0,41.08,0,42.86-31,4.21-36.87-22.3-40-43.6-42.52-12.79-1.51-24.87-2.94-31-10.16l-.11-.12c-17-18.61-21.36-61-9-89,5.49-12.47,16.66-27.35,38.66-27.35a52.87,52.87,0,0,1,5.55.3,90.12,90.12,0,0,0,9.51.44c6.25,0,13-.45,19.47-.88s12.53-.85,18.13-.85c10.26,0,16.38,1.46,18.69,4.46,1.51,2,1.68,5.19.51,9.65a5,5,0,0,0-.16,1.45c0,1,.13,2.15.22,3.22.67,8.3-.14,9.73-3.5,10.42a73.52,73.52,0,0,1-11.29.73c-4.87,0-9.95-.27-15.33-.56s-11-.58-16.36-.58c-17.54,0-38.13,3-41.66,26.88-2.26,15.2-.52,26.19,5.32,33.59,8.07,10.22,22,11.44,35.51,12.61,11.65,1,23.7,2.06,31.2,8.84,20.36,26.51,25.4,61.89,12.53,88.16C1779,1050.14,1761.17,1060.93,1738.5,1060.93Z" transform="translate(-29.44 -7.31)"/><path d="M1772.87,836.69c12.65,0,14.66,2.42,14.74,2.52s.57,1.72-.38,5.32a10.19,10.19,0,0,0-.31,2.91c0,1.15.13,2.32.22,3.44a37,37,0,0,1,.19,5.15,72,72,0,0,1-10,.59c-4.73,0-9.75-.27-15.06-.55-5.47-.29-11.12-.59-16.63-.59-10.38,0-42,0-46.6,31.14-2.48,16.64-.41,28.89,6.33,37.43,9.41,11.92,25.13,13.28,39,14.49,11.13,1,21.66,1.88,28,7.29a89,89,0,0,1,17.57,42.39c1.84,14.41-.24,28.66-5.86,40.14-8.72,17.78-24.9,27.57-45.57,27.57a79.11,79.11,0,0,1-15.44-1.62c-.25,0-.5-.1-.75-.13a66.15,66.15,0,0,0-8.12-.44c-3.67,0-7.43.21-11.07.42s-6.91.39-10.1.39a32.32,32.32,0,0,1-10.23-1.24,18.57,18.57,0,0,1-1-8,18.35,18.35,0,0,1,1.81-7.65,61,61,0,0,1,10.29-.7c4.17,0,8.64.21,13.38.44,5,.23,10.16.48,15.26.48,11.32,0,45.71,0,47.84-35.6,4.69-41.68-27-45.43-48-47.92-11.27-1.33-22.93-2.71-27.83-8.44l-.22-.25c-15.61-17-19.57-57.69-8.15-83.63,7.11-16.17,18.58-24.37,34.08-24.37,1.62,0,3.31.1,5,.27a94.85,94.85,0,0,0,10,.47c6.42,0,13.22-.45,19.8-.89,6.36-.43,12.37-.84,17.8-.84m-89,200.47h0m89-210.47c-11.63,0-25.54,1.73-37.6,1.73a85.78,85.78,0,0,1-9-.41,58,58,0,0,0-6.07-.33c-58.14,0-61.9,93.54-33.31,124.76,19.41,22.68,79.5-3,73.45,49-1.23,22.7-18.47,26.45-37.87,26.45-9.58,0-19.68-.92-28.64-.92a68.21,68.21,0,0,0-12.5.94c-11,.76-12.91,28.79-4,33.93,4.4,2.13,9.87,2.71,15.71,2.71,6.92,0,14.36-.81,21.17-.81a56.81,56.81,0,0,1,6.9.37,88.57,88.57,0,0,0,17.41,1.82c62.35,0,80.85-75.8,41.23-126.92-23.72-22.23-79.47,7.46-70.78-50.92,2.83-19.13,18.53-22.61,36.71-22.61,10.4,0,21.62,1.14,31.69,1.14a78.07,78.07,0,0,0,12.18-.81c10.18-2,7.64-12.16,7.39-18.75,4.42-16.88-7.52-20.37-24-20.37Z" transform="translate(-29.44 -7.31)"/><path class="cls-1" d="M1892,1060.89a9.83,9.83,0,0,1-7.73-3.15c-8.89-9.62-6.56-39-4.85-60.51,1.21-15.28,2.17-27.41.15-34.47-1.45-11.07-.65-26.07.12-40.59,1.68-31.55,3.27-61.35-16.47-62.77h-.56c-3.05.12-5.93.27-8.64.42-4.44.24-8.28.45-11.63.45-6.35,0-9.8-.79-11.18-2.57-2.19-2.8-1.83-10.28,1.07-22.25,2.88-2.65,7.53-3.89,14.48-3.89,4.58,0,9.52.51,14.74,1s10.73,1.1,15.88,1.1a55,55,0,0,0,6.12-.31,99.7,99.7,0,0,0,11,.56c6.72,0,13.42-.54,19.9-1.06s12.4-1,18.35-1c8.49,0,15.35,1,21.38,3.27,4.17,14.46,2.6,19.7,1.23,21.56-1.5,2-4.85,2.89-11.22,2.89-1.58,0-3.21,0-4.93-.09s-3.58-.1-5.39-.1c-7.21,0-15.34.78-21,6.57-4.46,4.59-6.52,11.4-6.28,20.8-.55,21.57.22,43.86,1,65.42,1.34,38.79,2.61,75.48-3.5,105.58C1899.36,1059.85,1895.32,1060.89,1892,1060.89Z" transform="translate(-29.44 -7.31)"/><path d="M1846.77,836.56c4.32,0,9.14.49,14.23,1a164.05,164.05,0,0,0,16.39,1.12c2.2,0,4.21-.09,6.12-.28a108.58,108.58,0,0,0,11,.53c6.92,0,13.72-.55,20.3-1.07,6.27-.51,12.2-1,18-1a59.8,59.8,0,0,1,17.27,2.17c2.92,11.15,1.53,14.29,1.33,14.66-.3.2-1.75.89-7.21.89-1.51,0-3.11,0-4.79-.09s-3.65-.1-5.53-.1c-7.77,0-17.58.92-24.56,8.09-5.43,5.58-8,13.52-7.7,24.28-.55,21.68.23,44,1,65.59,1.3,37.36,2.52,72.76-2.89,101.8a22.14,22.14,0,0,1-7.64,1.7,4.88,4.88,0,0,1-4.06-1.54c-1.63-1.77-4.45-6.84-5-21-.46-11.06.58-24.18,1.5-35.76,1.36-17.18,2.11-28.33.08-35.86-1.32-10.59-.54-25.2.21-39.33.8-15,1.55-29.26.16-40.8-2.6-21.42-13-26.63-21.27-27.22l-.72,0h-.4c-3.09.12-6,.28-8.71.43-4.37.23-8.15.44-11.36.44-4.91,0-6.69-.52-7.27-.77-.31-.89-1.05-4.55,1.61-16.14,2.07-1.21,5.38-1.8,10-1.8m0-10c-7.79,0-14.63,1.39-19,6.38-6.94,27.75-1.41,32.33,14.65,32.33,5.58,0,12.43-.55,20.47-.88,22.68,1.63,7.24,65.92,11.8,99.42,6,19-16.52,102.08,17.34,102.08,4.44,0,9.84-1.42,16.4-4.61,10.56-48.2,1.6-113.81,3.16-174.48-.55-20.1,10.42-22.37,22.26-22.37,3.45,0,7,.19,10.32.19,13.22,0,23.42-3,14.09-33.19-8.14-3.51-16.69-4.53-25.48-4.53-12.43,0-25.33,2.05-38.25,2.05a96.58,96.58,0,0,1-11-.59,50.26,50.26,0,0,1-6.11.34c-9.76,0-20.93-2.14-30.62-2.14Z" transform="translate(-29.44 -7.31)"/><path class="cls-1" d="M2308.51,1059.89c-5.1,0-9-1.17-11.06-3.3a7.54,7.54,0,0,1-1.79-5.86c0-.06,0-4.42,0-4.42.31-34.77.59-67.61.26-101.14,1.52-14.52.69-30.95-.11-46.84-1.17-23-2.37-46.66,3.42-65a66.79,66.79,0,0,1,13.13-1.67c5.56,0,7.57,1.49,8.6,2.62,4.1,4.48,3.48,17.14,2.65,26.27-2.3,28.85-1.13,57.47,0,85.15,1.62,39.24,3.14,76.35-4.66,112.61A37.14,37.14,0,0,1,2308.51,1059.89Z" transform="translate(-29.44 -7.31)"/><path d="M2312.4,826.69v10h0c2.51,0,4.34.37,4.91,1,.93,1,2.92,5.24,1.36,22.45,0,0,0,.07,0,.1-2.32,29.11-1.14,57.88,0,85.71,1.55,37.8,3,73.62-3.93,108.31a31.79,31.79,0,0,1-6.23.64c-4.56,0-6.82-1.1-7.44-1.75a3.32,3.32,0,0,1-.41-2.18c0-.12,0-.25,0-.37l0-4.35c.31-34.65.59-67.39.26-100.84,1.52-14.83.69-31.34-.12-47.32-1.08-21.32-2.19-43.3,2.37-60.39a54.15,54.15,0,0,1,9.19-1v-10m0,0a81.93,81.93,0,0,0-17,2.37c-11.76,32.34-.62,79.87-4.48,115.87.35,35,0,69.88-.29,105.57-.5,10.82,8.44,14.39,17.84,14.39a41.17,41.17,0,0,0,14.77-2.76c14.63-64.08-.19-131.72,5.35-201.1,2.28-25.19-1.36-34.34-16.23-34.34Z" transform="translate(-29.44 -7.31)"/><path class="cls-1" d="M1425.4,293.73a21,21,0,0,1-8.34-1.8c-3.31-4.12-5.08-8.44-6.94-13s-3.87-9.48-7.53-14.09c-4.11-7.18-9.28-12.15-13.84-16.54-9-8.63-15.46-14.87-12.86-34.25,0-.13,0-.26,0-.38.23-4.07.15-8.19.06-12.18-.15-7.18-.33-15.32,2-17.7.21-.21.76-.78,2.6-.78s5,.53,10.71,3.08a3.84,3.84,0,0,0,.36.14c18.82,6.73,30.43,18.68,36.52,37.62,5.79,18,5.67,40.27,5.1,59.74a4.44,4.44,0,0,0,.15,1.36c.68,2.74.49,4.82-.57,6.18-1.27,1.62-4,2.59-7.45,2.59Z" transform="translate(-29.44 -7.31)"/><path d="M1381.81,187h0m-.38,1.1a30.37,30.37,0,0,1,7.82,2.58,6.22,6.22,0,0,0,.71.29c17.24,6.16,27.87,17.1,33.45,34.44s5.42,39,4.86,58.07a9.88,9.88,0,0,0,.29,2.71,6.4,6.4,0,0,1,.25,1.92,7.4,7.4,0,0,1-3.41.64,15.58,15.58,0,0,1-5.2-.93c-2.39-3.27-3.83-6.78-5.45-10.76-1.91-4.66-4.06-9.92-8-15-4.42-7.62-9.78-12.77-14.53-17.34-8.5-8.17-13.63-13.1-11.37-30,0-.25.06-.51.08-.76.24-4.26.15-8.48.06-12.56s-.22-10.39.45-13.32m-.85-10.06c-13.24,0-8.72,19-9.65,35.37-4.41,32.87,16.18,34.09,27.51,54.27,7.07,8.69,7.34,18.82,15.47,28.3a25.73,25.73,0,0,0,11.49,2.77c8.32,0,15.48-4.51,12.87-15,1.26-43.38-.52-86.35-44.94-102.21-5.46-2.44-9.61-3.52-12.75-3.52Z" transform="translate(-29.44 -7.31)"/><path class="cls-2" d="M1000.91,971.76a82.34,82.34,0,0,0-15.12-25.41c-6.79-7.63-13.89-15-21-22.35-16,33-54.08,106.65-69.41,136.23,29.69-8.09,57.55-21,85-34.69C1004,1013.82,1010.32,996.31,1000.91,971.76Z" transform="translate(-29.44 -7.31)"/><path class="cls-2" d="M877.33,722.08" transform="translate(-29.44 -7.31)"/><path class="cls-2" d="M844.81,586.59" transform="translate(-29.44 -7.31)"/><path class="cls-2" d="M845.39,1090.79c42-53.3,65.72-107,90.86-164l.13-.29q4.07-9.19,8.22-18.56c24.37-63.62,39.65-116.38,48.09-166,10.63-62.5,10-118.49-1.84-171.17l0-.14c-7.23-39.72-17.05-66.24-30.92-83.52C943.76,467,921.54,458.44,889.44,460l-.46,0-.46-.06c-20.44-2.8-37.47-4.16-52.08-4.16-55.4,0-83,19.31-105.38,73.77-1,4.2-3.92,9.39-7.23,15.4-3.86,7-10.31,18.67-8.79,22.77.08.21.25.66,1.26,1.08L732.11,573a.75.75,0,0,0,.16-.29C746.34,530,759.37,525,779.1,517.36c1.53-.59,3.07-1.18,4.65-1.81.87-.35.87-.35,25.9-2.3h.1c5-.38,9.68-.75,10.69-.84a53,53,0,0,1,9.2-.8c15.88,0,28.36,6.76,34.39,10.78,9.89,6.62,15.89,14.55,16.05,21.23,0,1.78-.42,10.71-13.51,11.31h-.18c-12.38,0-23.1-.33-32.56-.58-8.05-.21-15-.4-21.23-.4h0c-22,0-34.12,2.22-43.2,14.84l-.2.26a13.49,13.49,0,0,0-2.74,4.4c.76.46,3.55,1.68,12.09,1.68,7.16,0,15.82-.79,24.2-1.55,7.74-.7,15-1.37,20.7-1.37a34.75,34.75,0,0,1,7.55.65c6.85.45,13.07,5.77,17.1,10.16l.41.51c12.22,17.4,25,17.6,41.26,17.86,3.87.06,7.86.13,12,.45.65-.06,1.32-.08,2-.08,8.78,0,19.79,4.49,22.91,12.81,1.22,3.24,2.11,9.67-5.54,16.37l-.61.53-.75.31a13.49,13.49,0,0,1-5.36,1,39.25,39.25,0,0,1-6.3-.68c-3-.49-6.27-.92-8.59-.38l-.21.12c.13.75.37,1.84.53,2.52l.23,1.06c6.94,35.23-6.83,83.46-8.73,89.83l-.1,1.27-.33.76c-20.72,48-52.54,72.51-83.3,96.26-15.44,11.93-30,23.19-42.24,36.86l-.29.3c-12.51,11.88-23,27.65-33.07,42.9-6.1,9.19-12.39,18.68-19.12,27.32l-.75,1-1.12.51a13.09,13.09,0,0,1-5.44,1.18A15,15,0,0,1,692.86,926a15.13,15.13,0,0,1,.3-15.56l.43-.64.23-.24C704,898.66,708,891.35,707.55,884.3c-.44-7.57-6.11-16.11-15.11-27.42l-.42-.63c-6.63-11.55-25.95-28.49-43-43.43-27.57-24.18-41.79-37.24-38.16-46.91,2.49-6.6,11.19-6.6,14-6.6l1.57,0,.71,0,.66.22c20.82,6.68,61.88,50.76,82.92,75.82a67.69,67.69,0,0,1,10,12.74c2.62,4,4.59,7,7.53,8.73,31.24-29.54,54.2-49.25,71-63.68,20.25-17.38,30.41-26.11,33-33,2.17-5.77-1.56-11.83-9.72-25.11a436.71,436.71,0,0,1-23.77-43c-5.13-9.86-9.55-18.57-13.45-26.26C773.83,643,766.85,629.26,759,620.71c-12.92-12.81-27.69-17.73-40.73-22.07-11.77-3.92-21.93-7.3-27.94-15.63s-6.65-19.89-1.87-37.13c-5.23-2.43-13.06-7.12-23.34-14-1.54-1-3.18-2.13-5-3.41-.57,2-1.17,4.14-1.7,6-3.27,11.76-4.32,15-6,16.71l-.43.44-.52.33c-1.48.93-4.2,3.76-6.82,6.49-6.8,7.08-14.51,15.11-22.35,15.11a11.06,11.06,0,0,1-3.2-.47l-.4-.14c-5.64-2.28-8.87-5.68-9.58-10.12-1.48-9.12,8.78-17.81,17-24.8,1.73-1.46,3.36-2.85,4.45-3.89a6.38,6.38,0,0,1,2.55-3.26c5.23-4.12,7.23-15.74,8.83-25.08,1.89-11,3.53-20.48,11.44-20.48,4.06,0,7.94,3,13,10l.1.14c7,10.79,22.78,18.8,32.28,18.8,2.37,0,3.71-.52,4.18-1C733,465.77,753.09,438.66,816,434l.75,0c4.88-.35,10.42-.75,12.87-3.79,1.63-2,2.12-5.64,1.43-10.47-.17-1.2-.24-1.64-2.61-1.64h0c-5.48,0-14.89,3.86-24,7.59-10.39,4.26-20.19,8.28-27.56,8.28a16,16,0,0,1-3.57-.36c-1.71.56-4.11,2.25-6.26,3.76-4,2.84-8.22,5.77-12.93,5.77a10.44,10.44,0,0,1-4-.8l-.6-.25-.51-.4a53.87,53.87,0,0,1-13.24-14.33c-2.17-3.27-2.23-3.27-3.74-3.27-2.25,0-6.25.88-12.6,2.77l-.76.18-.34,0c-8.29.54-15.8-2.61-22.17-9.33-21.8-23-24.22-79.44-23.35-97.71a20.23,20.23,0,0,1,4.72-15.43c3-3.49,6.9-5.49,10.71-5.49,3.62,0,12.16,1.81,13.32,18.62a122.94,122.94,0,0,1,0,21.83c-.55,8-1,14.83,1.68,23a123.27,123.27,0,0,1,5,13.78c2.57,7.92,6.4,19.76,10.62,21.5a96.9,96.9,0,0,1,18.12-2.15c11.65,0,15.58,4.35,18.45,7.52,2.06,2.27,3.19,3.53,8.26,3.53a67.54,67.54,0,0,0,14.52-2.15c9-6.48,18.39-9.63,28.77-9.63.82,0,1.67,0,2.52.07,5.52-2.93,14.11-5.95,22.3-5.95.68,0,1.35,0,2,.06l.66,0,.64.22c10.28,3.49,18.88,5.26,25.56,5.26s11.26-1.69,14.11-5.17c7.77-9.48,3.34-31.76-.58-51.43-1-5.12-2-9.92-2.74-14.56-.66-4.3-3.52-10.28-8.06-16.87-15.24-15.93-12.32-34.38-9.5-52.23,1.28-8,2.6-16.38,2.12-24.25-1.55-27.08-4-44.51-7.46-53.29-2.55-6.43-4.74-6.43-7.28-6.43-.76,0-1.55,0-2.39.08-1,.05-2.06.1-3.16.1a20.1,20.1,0,0,1-16.15-7.41l-.77-.88-.3-1.12c-3-11.34,7.17-14.31,12.65-15.91,4-1.16,7.73-2.26,8.62-4.73.74-2,1.09-8.81-11.62-27.8-21.48-32.82-49.5-58.27-83.3-75.68-31.46-16.2-67.47-24.76-104.12-24.76A248.9,248.9,0,0,0,482.72,69.42c-29.55,24-52,57.73-65,97.41-12.24,37.38-15.79,78.61-10.28,119.24,3.74,22-10.4,36.1-24.06,49.75a172.63,172.63,0,0,0-13.46,14.51c-20.29,30.79-44.18,37.71-69.48,45-12,3.46-24.32,7-36.6,13.43l-.51.23c-52,20-96.88,50.15-133.51,89.68A353.31,353.31,0,0,0,53.3,629,378.39,378.39,0,0,0,36.85,789.59,371.26,371.26,0,0,0,55,869.35,361.17,361.17,0,0,0,91.1,944.18l.05.09c29,48.45,74.66,90.74,132,122.33,54.39,29.94,117.28,49.41,181.86,56.31a.86.86,0,0,0,.83-.33c7.71-9.45,29.18-23.78,54.69-36.51,27.18-13.56,51.54-21.65,65.18-21.65,13.82,0,16.16,8,16.53,11.51l.14,1.33-.53,1.22c-5.34,12.11-20.33,16.16-39.32,21.28-16.25,4.39-34.67,9.36-51.53,20.45-19.44,12.77-32.77,31.22-40.74,56.38l-.22.57c-11.3,24.72-13.57,43.08-6.95,56.12,5.69,11.21,18.1,18.63,37.94,22.7l.58.12.54.25c9.44,4.42,16.29,6.31,22.9,6.31,6.14,0,12.24-1.59,20.69-4.32l.93-.3,1,.06,5.76.46c4.45.37,8.59.71,12.18.71,10.44,0,16.69-2.65,21.83-17.15,8.36-27,17.69-42.55,31.2-52,12.82-9,28.93-11.93,49.32-15.62,3.15-.57,6.38-1.15,9.76-1.79,41-12.12,69.4-21.54,86.73-28.8,17.62-7.37,20.66-11.27,21.17-12.2-.33-.44-1.46-1.59-5-3.31-4.62-2.27-11.16-4.5-18.73-7.08-9.06-3.1-19.33-6.6-28.83-11.1-77.1-31.81-153.32-71.55-254.85-132.86l-.1-.06-12.52-8.18-.53-.34c-64.58-42.12-120.35-78.49-147.74-127.24-22.81-38.73-25-93.79-5.62-143.66,18.21-46.94,52.68-81.25,94.59-94.14A201.81,201.81,0,0,1,409.76,593c54.57,0,103.42,25.47,134,69.89,32.8,47.62,39.54,109.84,18,166.48-3.89,15.72-17,34.65-27.46,34.65a8.68,8.68,0,0,1-6.81-3.18c-3.41-4.05-4.07-11.42-2.06-23.19l.14-.81.38-.71c25.8-48.11,26.26-98.45,1.34-145.58a131.8,131.8,0,0,0-52.11-51.75,144,144,0,0,0-68.85-17.29c-35.83,0-69.32,12.66-94.29,35.65C284,683,268.77,720.05,268,764.3v.14c-3.72,77.33,66.41,123.44,128.3,164.13l.25.17c7.9,5.19,15.37,10.1,22.71,15.09,95.7,58.41,206.78,124.11,313,163.85l.32.13c18,8.13,36.22,12.43,52.76,12.43,25.48,0,45.65-9.87,59.94-29.32ZM754,275.2a137.31,137.31,0,0,0,13.9-7.26c9.44-5.37,19.18-10.92,29.89-12.65l.46-.07h.46c.86,0,1.8,0,2.78,0,3,0,6.23-.09,9.61-.2s6.91-.21,10.31-.21c11.34,0,22.32,1.1,25.87,9.09,3.15,7.09-1,16.45-13.45,30.31-7.4,13.52-15.39,19.82-25.11,19.82-8.11,0-15.49-4.48-23.31-9.23s-15.6-9.48-23.85-9.48a21.35,21.35,0,0,0-4.58.5l-.69.15-.71,0a10.21,10.21,0,0,1-9.73-9.07C745.31,282.49,747.65,277.19,754,275.2Zm-323.87,941-.67,1.25-1.22.72c-3.6,2.12-6.63,3.15-9.26,3.15a8.33,8.33,0,0,1-7.18-3.83,12.46,12.46,0,0,1-1.69-6.86c0-9.64,7-27.15,12.95-40.14,3.77-8.28,7.18-15,8.88-18.24a65.07,65.07,0,0,1,4.65-8.22c2.69-5.32,10.56-12.91,17.09-18.28,7.36-6,17.63-13.27,24.72-13.27a8.3,8.3,0,0,1,6.74,3.09c2,2.59,2.36,6.26,1.08,11.21a11,11,0,0,1-5.37,6.83c-18.18,10-28.19,22.19-36.93,44.88l-.27.58c-2.39,4.39-4.17,10.41-6.06,16.79C435.47,1202.82,433.32,1210.05,430.08,1216.16Zm32.32,16a14.18,14.18,0,0,1-3.92,9.83,12.23,12.23,0,0,1-8.65,3.94,9.13,9.13,0,0,1-6.94-3.08c-2.35-2.65-3.25-6.49-2.68-11.42,1.39-17.42,14.61-43,26.52-61.13,5.85-8.9,26-38,39.44-38,2,0,8.5.75,9.6,10.34l.25,2.13-1.38,1.65q-2.92,3.49-5.76,6.85l-.28.33C486.18,1180.23,468.47,1201.23,462.4,1232.16Zm90.38-82.48h0l.85.12.76.4c4.49,2.36,5.42,5.79,5.57,7.63.61,7.43-8.38,14.25-17.9,21.46-4,3-8.48,6.43-9.93,8.39l-.49.56a100.44,100.44,0,0,0-24.52,41.43c-1.8,10.62-7.66,14.41-12.56,14.41a10.49,10.49,0,0,1-8.39-4.38c-2.58-3.44-3.29-8.13-2-12.89,2.34-12.37,12.74-31.19,26.52-48,9-10.94,26.07-29.28,39.95-29.28A14.56,14.56,0,0,1,552.78,1149.68Zm16.89-795.8c-11.38-19.47-18.16-41.67-19.65-54.08l-.11-.79,0-.55c4.57-58.65,39.86-65,54.83-65,17.53,0,33.61,8.13,39,16,3.14,4.55,2.72,8.33,1.82,10.7l-.31.67c-2.89,5.14-7.11,7.74-12.55,7.74-4.39,0-9-1.67-14.43-3.61-2.57-.93-5.23-1.89-8.1-2.76a25.08,25.08,0,0,0-3.67-.27c-14.5,0-27.28,12.22-27.92,26.68v.15c-2.18,25.93,17.5,56.8,31.66,69.79,14.55,5,21.31,10.22,21.91,16.86.47,5.19-2.88,9.68-10.24,13.75l-.92.5-1,.1c-1.08.1-2.17.15-3.24.15C595.25,389.92,579.28,370.32,569.67,353.88Z" transform="translate(-29.44 -7.31)"/><path class="cls-3" d="M865.47,729.74c-20.08,7.77-95.38-132.09-83.84-130.9C805.7,594.93,870.08,619,878,642,889,674,872,714,865.47,729.74Z" transform="translate(-29.44 -7.31)"/></svg>